<svg xmlns="http://www.w3.org/2000/svg" xmlns:xlink="http://www.w3.org/1999/xlink" width="1920" zoomAndPan="magnify" viewBox="0 0 1440 809.999993" height="1080" preserveAspectRatio="xMidYMid meet" version="1.0"><defs><clipPath id="9e31a07375"><path d="M 573.742188 273 L 866.242188 273 L 866.242188 519.78125 L 573.742188 519.78125 Z M 573.742188 273 " clip-rule="nonzero"/></clipPath></defs><path fill="#ffde59" d="M 845.578125 177 L 594.332031 177 C 537.867188 177 492 222.957031 492 279.421875 L 492 530.667969 C 492 532.339844 492.042969 534.015625 492.128906 535.6875 C 492.210938 537.359375 492.335938 539.027344 492.5 540.695312 C 492.667969 542.359375 492.871094 544.023438 493.121094 545.679688 C 493.367188 547.335938 493.652344 548.984375 493.980469 550.625 C 494.308594 552.265625 494.675781 553.898438 495.085938 555.523438 C 495.492188 557.148438 495.9375 558.761719 496.425781 560.363281 C 496.914062 561.964844 497.4375 563.554688 498.003906 565.128906 C 498.570312 566.707031 499.171875 568.269531 499.8125 569.8125 C 500.453125 571.359375 501.132812 572.890625 501.851562 574.40625 C 502.566406 575.917969 503.320312 577.414062 504.109375 578.890625 C 504.898438 580.367188 505.726562 581.820312 506.585938 583.257812 C 507.445312 584.691406 508.34375 586.105469 509.273438 587.5 C 510.203125 588.890625 511.167969 590.257812 512.164062 591.605469 C 513.164062 592.949219 514.191406 594.269531 515.253906 595.5625 C 516.316406 596.855469 517.410156 598.125 518.535156 599.363281 C 519.660156 600.605469 520.816406 601.816406 522 603 C 523.183594 604.183594 524.394531 605.339844 525.636719 606.464844 C 526.875 607.589844 528.144531 608.683594 529.4375 609.746094 C 530.730469 610.804688 532.050781 611.835938 533.394531 612.835938 C 534.742188 613.832031 536.109375 614.796875 537.5 615.726562 C 538.894531 616.65625 540.308594 617.554688 541.742188 618.414062 C 543.179688 619.273438 544.632812 620.101562 546.109375 620.890625 C 547.585938 621.679688 549.082031 622.433594 550.59375 623.148438 C 552.109375 623.867188 553.640625 624.546875 555.183594 625.1875 C 556.730469 625.828125 558.292969 626.429688 559.871094 626.996094 C 561.445312 627.5625 563.035156 628.085938 564.636719 628.574219 C 566.238281 629.058594 567.851562 629.507812 569.476562 629.914062 C 571.101562 630.324219 572.734375 630.691406 574.375 631.019531 C 576.015625 631.347656 577.664062 631.632812 579.320312 631.882812 C 580.976562 632.128906 582.640625 632.332031 584.304688 632.5 C 585.972656 632.664062 587.640625 632.789062 589.3125 632.871094 C 590.984375 632.957031 592.660156 633 594.332031 633 L 845.578125 633 C 902.042969 633 948 587.132812 948 530.667969 L 948 279.421875 C 948 277.746094 947.957031 276.070312 947.871094 274.398438 C 947.789062 272.722656 947.664062 271.054688 947.5 269.386719 C 947.332031 267.71875 947.125 266.054688 946.878906 264.398438 C 946.632812 262.742188 946.34375 261.089844 946.015625 259.445312 C 945.6875 257.804688 945.320312 256.167969 944.914062 254.542969 C 944.503906 252.917969 944.058594 251.304688 943.570312 249.699219 C 943.082031 248.097656 942.554688 246.507812 941.992188 244.929688 C 941.425781 243.351562 940.820312 241.789062 940.179688 240.242188 C 939.539062 238.691406 938.859375 237.160156 938.140625 235.648438 C 937.425781 234.132812 936.671875 232.636719 935.878906 231.15625 C 935.089844 229.679688 934.261719 228.222656 933.402344 226.785156 C 932.539062 225.347656 931.644531 223.933594 930.710938 222.539062 C 929.78125 221.148438 928.816406 219.777344 927.816406 218.433594 C 926.816406 217.085938 925.789062 215.765625 924.722656 214.46875 C 923.660156 213.175781 922.566406 211.90625 921.441406 210.664062 C 920.316406 209.421875 919.160156 208.210938 917.976562 207.023438 C 916.789062 205.839844 915.578125 204.683594 914.335938 203.558594 C 913.09375 202.433594 911.824219 201.339844 910.53125 200.277344 C 909.234375 199.210938 907.914062 198.183594 906.566406 197.183594 C 905.222656 196.183594 903.851562 195.21875 902.460938 194.289062 C 901.066406 193.355469 899.652344 192.460938 898.214844 191.597656 C 896.777344 190.738281 895.320312 189.910156 893.84375 189.121094 C 892.363281 188.328125 890.867188 187.574219 889.351562 186.859375 C 887.839844 186.140625 886.308594 185.460938 884.757812 184.820312 C 883.210938 184.179688 881.648438 183.574219 880.070312 183.007812 C 878.492188 182.445312 876.902344 181.917969 875.300781 181.429688 C 873.695312 180.941406 872.082031 180.496094 870.457031 180.085938 C 868.832031 179.679688 867.195312 179.3125 865.554688 178.984375 C 863.910156 178.65625 862.257812 178.367188 860.601562 178.121094 C 858.945312 177.875 857.28125 177.667969 855.613281 177.5 C 853.945312 177.335938 852.277344 177.210938 850.601562 177.128906 C 848.929688 177.042969 847.253906 177 845.578125 177 Z M 939.273438 530.667969 C 939.273438 582.234375 897.234375 624.273438 845.578125 624.273438 L 594.332031 624.273438 C 592.800781 624.269531 591.273438 624.230469 589.742188 624.152344 C 588.214844 624.074219 586.6875 623.957031 585.164062 623.804688 C 583.640625 623.652344 582.121094 623.460938 580.605469 623.234375 C 579.09375 623.007812 577.585938 622.746094 576.082031 622.445312 C 574.582031 622.144531 573.089844 621.804688 571.605469 621.433594 C 570.121094 621.058594 568.644531 620.648438 567.179688 620.203125 C 565.714844 619.753906 564.261719 619.273438 562.820312 618.757812 C 561.382812 618.238281 559.953125 617.6875 558.539062 617.097656 C 557.125 616.511719 555.726562 615.890625 554.34375 615.234375 C 552.960938 614.578125 551.59375 613.890625 550.242188 613.167969 C 548.894531 612.445312 547.5625 611.6875 546.25 610.902344 C 544.9375 610.113281 543.644531 609.292969 542.371094 608.441406 C 541.097656 607.589844 539.847656 606.707031 538.617188 605.796875 C 537.386719 604.882812 536.183594 603.941406 535 602.96875 C 533.816406 602 532.65625 601 531.523438 599.96875 C 530.386719 598.941406 529.277344 597.886719 528.195312 596.804688 C 527.113281 595.722656 526.058594 594.613281 525.03125 593.476562 C 524 592.34375 523 591.183594 522.03125 590 C 521.058594 588.816406 520.117188 587.613281 519.203125 586.382812 C 518.292969 585.152344 517.410156 583.902344 516.558594 582.628906 C 515.707031 581.355469 514.886719 580.0625 514.097656 578.75 C 513.3125 577.4375 512.554688 576.105469 511.832031 574.757812 C 511.109375 573.40625 510.421875 572.039062 509.765625 570.65625 C 509.109375 569.273438 508.488281 567.875 507.902344 566.460938 C 507.3125 565.046875 506.761719 563.617188 506.242188 562.179688 C 505.726562 560.738281 505.246094 559.285156 504.796875 557.820312 C 504.351562 556.355469 503.941406 554.878906 503.566406 553.394531 C 503.195312 551.910156 502.855469 550.417969 502.554688 548.917969 C 502.253906 547.414062 501.992188 545.90625 501.765625 544.394531 C 501.539062 542.878906 501.347656 541.359375 501.195312 539.835938 C 501.042969 538.3125 500.925781 536.785156 500.847656 535.257812 C 500.769531 533.726562 500.730469 532.199219 500.726562 530.667969 L 500.726562 279.421875 C 500.726562 227.765625 542.765625 185.726562 594.332031 185.726562 L 845.578125 185.726562 C 847.109375 185.730469 848.644531 185.769531 850.175781 185.84375 C 851.707031 185.921875 853.234375 186.035156 854.757812 186.1875 C 856.285156 186.339844 857.804688 186.527344 859.320312 186.753906 C 860.835938 186.980469 862.347656 187.242188 863.851562 187.542969 C 865.355469 187.84375 866.847656 188.179688 868.335938 188.554688 C 869.824219 188.925781 871.300781 189.335938 872.765625 189.78125 C 874.234375 190.226562 875.6875 190.710938 877.128906 191.226562 C 878.574219 191.746094 880.003906 192.296875 881.417969 192.882812 C 882.835938 193.472656 884.234375 194.09375 885.621094 194.75 C 887.007812 195.40625 888.375 196.09375 889.726562 196.816406 C 891.078125 197.539062 892.414062 198.296875 893.726562 199.085938 C 895.042969 199.875 896.335938 200.695312 897.609375 201.546875 C 898.886719 202.398438 900.136719 203.28125 901.367188 204.195312 C 902.601562 205.105469 903.808594 206.050781 904.992188 207.023438 C 906.179688 207.996094 907.339844 208.996094 908.472656 210.027344 C 909.609375 211.054688 910.71875 212.113281 911.804688 213.195312 C 912.886719 214.28125 913.945312 215.390625 914.972656 216.527344 C 916.003906 217.660156 917.003906 218.820312 917.976562 220.007812 C 918.949219 221.191406 919.894531 222.398438 920.804688 223.632812 C 921.71875 224.863281 922.601562 226.113281 923.453125 227.390625 C 924.304688 228.664062 925.125 229.957031 925.914062 231.273438 C 926.703125 232.585938 927.460938 233.921875 928.183594 235.273438 C 928.90625 236.625 929.59375 237.992188 930.25 239.378906 C 930.90625 240.765625 931.527344 242.164062 932.117188 243.582031 C 932.703125 244.996094 933.253906 246.425781 933.773438 247.871094 C 934.289062 249.3125 934.773438 250.765625 935.21875 252.234375 C 935.664062 253.699219 936.074219 255.175781 936.445312 256.664062 C 936.820312 258.152344 937.15625 259.644531 937.457031 261.148438 C 937.757812 262.652344 938.019531 264.164062 938.246094 265.679688 C 938.472656 267.195312 938.660156 268.714844 938.8125 270.242188 C 938.964844 271.765625 939.078125 273.292969 939.15625 274.824219 C 939.230469 276.355469 939.269531 277.890625 939.273438 279.421875 Z M 847.804688 218.234375 L 592.105469 218.234375 C 590.175781 218.238281 588.25 218.335938 586.328125 218.527344 C 584.410156 218.71875 582.503906 219.003906 580.609375 219.382812 C 578.71875 219.761719 576.847656 220.234375 575 220.792969 C 573.15625 221.355469 571.339844 222.007812 569.558594 222.746094 C 567.773438 223.488281 566.03125 224.3125 564.332031 225.222656 C 562.628906 226.136719 560.976562 227.125 559.371094 228.199219 C 557.765625 229.273438 556.21875 230.421875 554.726562 231.644531 C 553.234375 232.871094 551.804688 234.164062 550.441406 235.53125 C 549.078125 236.894531 547.78125 238.324219 546.558594 239.816406 C 545.332031 241.308594 544.183594 242.855469 543.109375 244.460938 C 542.039062 246.066406 541.046875 247.71875 540.136719 249.417969 C 539.222656 251.121094 538.398438 252.863281 537.660156 254.644531 C 536.917969 256.429688 536.269531 258.242188 535.707031 260.089844 C 535.144531 261.9375 534.671875 263.804688 534.292969 265.699219 C 533.914062 267.589844 533.628906 269.5 533.4375 271.417969 C 533.246094 273.339844 533.148438 275.265625 533.148438 277.195312 L 533.148438 532.894531 C 533.148438 534.824219 533.246094 536.75 533.4375 538.671875 C 533.628906 540.589844 533.914062 542.496094 534.292969 544.390625 C 534.671875 546.28125 535.144531 548.152344 535.707031 550 C 536.269531 551.84375 536.917969 553.660156 537.660156 555.441406 C 538.398438 557.226562 539.222656 558.96875 540.136719 560.667969 C 541.046875 562.371094 542.039062 564.023438 543.109375 565.628906 C 544.183594 567.234375 545.332031 568.78125 546.558594 570.273438 C 547.78125 571.765625 549.078125 573.195312 550.441406 574.558594 C 551.804688 575.921875 553.234375 577.21875 554.726562 578.441406 C 556.21875 579.667969 557.765625 580.816406 559.371094 581.890625 C 560.976562 582.960938 562.628906 583.953125 564.332031 584.863281 C 566.03125 585.777344 567.773438 586.601562 569.558594 587.339844 C 571.339844 588.082031 573.15625 588.730469 575 589.292969 C 576.847656 589.855469 578.71875 590.328125 580.609375 590.707031 C 582.503906 591.085938 584.410156 591.371094 586.328125 591.5625 C 588.25 591.753906 590.175781 591.851562 592.105469 591.851562 L 847.804688 591.851562 C 849.734375 591.851562 851.660156 591.753906 853.582031 591.5625 C 855.5 591.371094 857.40625 591.085938 859.300781 590.707031 C 861.195312 590.328125 863.0625 589.855469 864.910156 589.292969 C 866.757812 588.730469 868.570312 588.082031 870.355469 587.339844 C 872.136719 586.601562 873.878906 585.777344 875.582031 584.863281 C 877.28125 583.953125 878.933594 582.960938 880.539062 581.890625 C 882.144531 580.816406 883.691406 579.667969 885.183594 578.441406 C 886.675781 577.21875 888.105469 575.921875 889.46875 574.558594 C 890.835938 573.195312 892.128906 571.765625 893.355469 570.273438 C 894.578125 568.78125 895.726562 567.234375 896.800781 565.628906 C 897.875 564.023438 898.863281 562.371094 899.777344 560.667969 C 900.6875 558.96875 901.511719 557.226562 902.253906 555.441406 C 902.992188 553.660156 903.644531 551.84375 904.207031 550 C 904.765625 548.152344 905.238281 546.28125 905.617188 544.390625 C 905.996094 542.496094 906.28125 540.589844 906.472656 538.671875 C 906.664062 536.75 906.761719 534.824219 906.765625 532.894531 L 906.765625 277.195312 C 906.761719 275.265625 906.664062 273.339844 906.472656 271.417969 C 906.28125 269.5 905.996094 267.589844 905.617188 265.699219 C 905.238281 263.804688 904.765625 261.9375 904.207031 260.089844 C 903.644531 258.242188 902.992188 256.429688 902.253906 254.644531 C 901.511719 252.863281 900.6875 251.121094 899.777344 249.417969 C 898.863281 247.71875 897.875 246.066406 896.800781 244.460938 C 895.726562 242.855469 894.578125 241.308594 893.355469 239.816406 C 892.128906 238.324219 890.835938 236.894531 889.46875 235.53125 C 888.105469 234.164062 886.675781 232.871094 885.183594 231.644531 C 883.691406 230.421875 882.144531 229.273438 880.539062 228.199219 C 878.933594 227.125 877.28125 226.136719 875.582031 225.222656 C 873.878906 224.3125 872.136719 223.488281 870.355469 222.746094 C 868.570312 222.007812 866.757812 221.355469 864.910156 220.792969 C 863.0625 220.234375 861.195312 219.761719 859.300781 219.382812 C 857.40625 219.003906 855.5 218.71875 853.582031 218.527344 C 851.660156 218.335938 849.734375 218.238281 847.804688 218.234375 Z M 898.035156 532.894531 C 898.03125 534.539062 897.949219 536.179688 897.785156 537.816406 C 897.621094 539.449219 897.378906 541.074219 897.054688 542.6875 C 896.734375 544.300781 896.332031 545.890625 895.851562 547.464844 C 895.375 549.039062 894.820312 550.585938 894.1875 552.101562 C 893.558594 553.621094 892.855469 555.105469 892.078125 556.554688 C 891.300781 558.003906 890.457031 559.414062 889.542969 560.78125 C 888.628906 562.148438 887.648438 563.464844 886.605469 564.734375 C 885.5625 566.007812 884.460938 567.222656 883.296875 568.386719 C 882.136719 569.550781 880.917969 570.652344 879.648438 571.695312 C 878.375 572.738281 877.058594 573.71875 875.691406 574.632812 C 874.324219 575.546875 872.914062 576.390625 871.464844 577.167969 C 870.015625 577.945312 868.53125 578.648438 867.011719 579.277344 C 865.496094 579.90625 863.949219 580.464844 862.375 580.941406 C 860.804688 581.421875 859.210938 581.820312 857.597656 582.144531 C 855.984375 582.46875 854.363281 582.710938 852.726562 582.875 C 851.089844 583.039062 849.449219 583.121094 847.804688 583.125 L 592.105469 583.125 C 590.460938 583.121094 588.820312 583.039062 587.183594 582.875 C 585.550781 582.710938 583.925781 582.46875 582.3125 582.144531 C 580.699219 581.820312 579.109375 581.421875 577.535156 580.941406 C 575.960938 580.464844 574.414062 579.90625 572.898438 579.277344 C 571.378906 578.648438 569.894531 577.945312 568.445312 577.167969 C 566.996094 576.390625 565.585938 575.546875 564.21875 574.632812 C 562.851562 573.71875 561.535156 572.738281 560.265625 571.695312 C 558.992188 570.652344 557.777344 569.550781 556.613281 568.386719 C 555.449219 567.222656 554.347656 566.007812 553.304688 564.734375 C 552.261719 563.464844 551.28125 562.148438 550.367188 560.78125 C 549.453125 559.414062 548.609375 558.003906 547.832031 556.554688 C 547.054688 555.105469 546.351562 553.621094 545.722656 552.101562 C 545.089844 550.585938 544.535156 549.039062 544.058594 547.464844 C 543.578125 545.890625 543.179688 544.300781 542.855469 542.6875 C 542.53125 541.074219 542.289062 539.449219 542.125 537.816406 C 541.960938 536.179688 541.878906 534.539062 541.875 532.894531 L 541.875 277.195312 C 541.878906 275.550781 541.960938 273.910156 542.125 272.273438 C 542.289062 270.636719 542.53125 269.015625 542.855469 267.402344 C 543.179688 265.789062 543.578125 264.195312 544.058594 262.625 C 544.535156 261.050781 545.089844 259.503906 545.722656 257.988281 C 546.351562 256.46875 547.054688 254.984375 547.832031 253.535156 C 548.609375 252.085938 549.453125 250.675781 550.367188 249.308594 C 551.28125 247.941406 552.261719 246.625 553.304688 245.351562 C 554.347656 244.082031 555.449219 242.863281 556.613281 241.703125 C 557.777344 240.539062 558.992188 239.4375 560.265625 238.394531 C 561.535156 237.351562 562.851562 236.371094 564.21875 235.457031 C 565.585938 234.542969 566.996094 233.699219 568.445312 232.921875 C 569.894531 232.144531 571.378906 231.441406 572.898438 230.8125 C 574.414062 230.179688 575.960938 229.625 577.535156 229.148438 C 579.109375 228.667969 580.699219 228.265625 582.3125 227.945312 C 583.925781 227.621094 585.550781 227.378906 587.183594 227.214844 C 588.820312 227.050781 590.460938 226.96875 592.105469 226.964844 L 847.804688 226.964844 C 849.449219 226.96875 851.089844 227.050781 852.726562 227.214844 C 854.363281 227.378906 855.984375 227.621094 857.597656 227.945312 C 859.210938 228.265625 860.804688 228.667969 862.375 229.148438 C 863.949219 229.625 865.496094 230.179688 867.011719 230.8125 C 868.53125 231.441406 870.015625 232.144531 871.464844 232.921875 C 872.914062 233.699219 874.324219 234.542969 875.691406 235.457031 C 877.058594 236.371094 878.375 237.351562 879.648438 238.394531 C 880.917969 239.4375 882.132812 240.539062 883.296875 241.703125 C 884.460938 242.863281 885.5625 244.082031 886.605469 245.351562 C 887.648438 246.625 888.628906 247.941406 889.542969 249.308594 C 890.457031 250.675781 891.300781 252.085938 892.078125 253.535156 C 892.855469 254.984375 893.558594 256.46875 894.1875 257.988281 C 894.820312 259.503906 895.375 261.050781 895.851562 262.625 C 896.332031 264.195312 896.734375 265.789062 897.054688 267.402344 C 897.378906 269.015625 897.621094 270.636719 897.785156 272.273438 C 897.949219 273.910156 898.03125 275.550781 898.035156 277.195312 Z M 898.035156 532.894531 " fill-opacity="1" fill-rule="nonzero"/><g clip-path="url(#9e31a07375)"><path fill="#ffffff" d="M 719.933594 484.542969 C 736.785156 484.621094 756.410156 486.003906 775.003906 489.75 C 791.308594 493.589844 793.207031 498.007812 776.457031 501.96875 C 758.671875 505.601562 739.734375 507.101562 719.933594 507.695312 C 700.117188 507.097656 681.179688 505.601562 663.394531 501.96875 C 646.621094 498.011719 648.542969 493.589844 664.847656 489.75 C 683.441406 486 703.089844 484.621094 719.933594 484.542969 Z M 604.109375 320.644531 C 599.007812 350.367188 605.429688 386.183594 631.507812 396.734375 C 617.234375 402.089844 616.0625 408.417969 612.550781 413.367188 C 581.832031 388.964844 587.855469 343.816406 604.109375 320.644531 Z M 678.398438 286.84375 C 664.386719 300.828125 659 297.984375 638.199219 297.984375 C 602.53125 297.984375 573.738281 326.902344 573.738281 362.6875 C 573.753906 386.933594 587.28125 415.988281 607.367188 427.1875 C 618.902344 433.609375 621.457031 430.363281 623.96875 421.769531 C 631.164062 397.160156 708.640625 397.546875 748.738281 403.882812 C 772.050781 407.878906 786.128906 412.316406 789.644531 425.421875 C 745.136719 405.355469 689.128906 407.027344 643.496094 421.882812 C 635.171875 424.652344 630.277344 429.355469 632.777344 437.679688 C 636.785156 450.976562 637.472656 461.566406 634.445312 478.320312 C 632.214844 490.632812 632.144531 499.917969 644.636719 505.78125 C 650.140625 508.371094 656.390625 510.40625 663.054688 512.175781 C 680.667969 516.921875 701.253906 519.402344 719.925781 519.402344 C 738.609375 519.402344 759.21875 516.921875 776.832031 512.175781 C 784.371094 510.160156 791.183594 507.375 797.34375 504.796875 C 807.429688 500.589844 808.335938 493.59375 806.222656 484.472656 C 803.941406 474.578125 803.746094 461.664062 807.050781 448.671875 C 809.410156 439.40625 812.039062 435.375 824.320312 430.917969 C 849.109375 421.90625 866.109375 390.0625 866.132812 362.667969 C 866.148438 323.0625 825.910156 288.359375 784.753906 300.796875 C 787.308594 312.417969 791.074219 328.890625 777.199219 342.777344 C 780.65625 328.515625 778.582031 314.203125 771.191406 300.441406 C 763.800781 286.683594 751.828125 276.675781 725.292969 274.445312 C 698.75 272.199219 687.261719 278.003906 678.398438 286.84375 Z M 678.398438 286.84375 " fill-opacity="1" fill-rule="evenodd"/></g></svg>