<svg xmlns="http://www.w3.org/2000/svg" xmlns:xlink="http://www.w3.org/1999/xlink" width="1920" zoomAndPan="magnify" viewBox="0 0 1440 809.999993" height="1080" preserveAspectRatio="xMidYMid meet" version="1.0"><defs><filter x="0%" y="0%" width="100%" height="100%" id="a188d33741"><feColorMatrix values="0 0 0 0 1 0 0 0 0 1 0 0 0 0 1 0 0 0 1 0" color-interpolation-filters="sRGB"/></filter><clipPath id="7892a4853e"><path d="M 485.25 170.25 L 954.75 170.25 L 954.75 639.75 L 485.25 639.75 Z M 485.25 170.25 " clip-rule="nonzero"/></clipPath><mask id="7a006f41a6"><g filter="url(#a188d33741)"><rect x="-144" width="1728" fill="#000000" y="-80.999999" height="971.999992" fill-opacity="0.2471"/></g></mask><clipPath id="4925ad0e05"><path d="M 0.519531 0.078125 L 190 0.078125 L 190 168 L 0.519531 168 Z M 0.519531 0.078125 " clip-rule="nonzero"/></clipPath><clipPath id="edc9cd893d"><rect x="0" width="191" y="0" height="169"/></clipPath><clipPath id="254c0531b7"><path d="M 583.015625 273.257812 L 864.265625 273.257812 L 864.265625 554.507812 L 583.015625 554.507812 Z M 583.015625 273.257812 " clip-rule="nonzero"/></clipPath></defs><g clip-path="url(#7892a4853e)"><path fill="#7ed957" d="M 849.296875 170.25 L 590.613281 170.25 C 532.476562 170.25 485.25 217.566406 485.25 275.703125 L 485.25 534.386719 C 485.25 536.113281 485.296875 537.835938 485.382812 539.554688 C 485.46875 541.277344 485.59375 542.996094 485.765625 544.710938 C 485.9375 546.425781 486.148438 548.136719 486.402344 549.84375 C 486.65625 551.546875 486.953125 553.246094 487.289062 554.9375 C 487.628906 556.628906 488.003906 558.308594 488.425781 559.980469 C 488.84375 561.652344 489.304688 563.3125 489.808594 564.960938 C 490.308594 566.613281 490.851562 568.246094 491.433594 569.871094 C 492.011719 571.492188 492.632812 573.101562 493.292969 574.695312 C 493.957031 576.285156 494.652344 577.863281 495.390625 579.417969 C 496.128906 580.976562 496.90625 582.515625 497.71875 584.035156 C 498.53125 585.558594 499.382812 587.054688 500.269531 588.535156 C 501.15625 590.011719 502.078125 591.46875 503.035156 592.902344 C 503.992188 594.335938 504.984375 595.742188 506.011719 597.128906 C 507.039062 598.511719 508.101562 599.871094 509.195312 601.203125 C 510.289062 602.535156 511.414062 603.839844 512.570312 605.117188 C 513.730469 606.394531 514.917969 607.644531 516.136719 608.863281 C 517.355469 610.082031 518.605469 611.269531 519.882812 612.429688 C 521.160156 613.585938 522.464844 614.710938 523.796875 615.804688 C 525.128906 616.898438 526.488281 617.960938 527.871094 618.988281 C 529.253906 620.015625 530.664062 621.007812 532.097656 621.964844 C 533.53125 622.921875 534.988281 623.84375 536.464844 624.730469 C 537.945312 625.617188 539.441406 626.46875 540.964844 627.28125 C 542.484375 628.09375 544.023438 628.871094 545.582031 629.609375 C 547.136719 630.347656 548.714844 631.042969 550.304688 631.707031 C 551.898438 632.367188 553.507812 632.988281 555.128906 633.566406 C 556.75 634.148438 558.386719 634.691406 560.039062 635.191406 C 561.6875 635.695312 563.347656 636.15625 565.019531 636.574219 C 566.691406 636.996094 568.371094 637.371094 570.0625 637.710938 C 571.753906 638.046875 573.453125 638.34375 575.15625 638.597656 C 576.863281 638.851562 578.574219 639.0625 580.289062 639.234375 C 582.003906 639.40625 583.722656 639.53125 585.445312 639.617188 C 587.164062 639.703125 588.886719 639.75 590.613281 639.75 L 849.296875 639.75 C 907.433594 639.75 954.75 592.523438 954.75 534.386719 L 954.75 275.703125 C 954.75 273.980469 954.703125 272.253906 954.617188 270.53125 C 954.53125 268.808594 954.402344 267.085938 954.234375 265.371094 C 954.0625 263.652344 953.851562 261.941406 953.597656 260.234375 C 953.34375 258.527344 953.046875 256.828125 952.707031 255.136719 C 952.371094 253.445312 951.992188 251.761719 951.570312 250.089844 C 951.152344 248.414062 950.691406 246.753906 950.1875 245.101562 C 949.6875 243.453125 949.144531 241.8125 948.5625 240.191406 C 947.980469 238.566406 947.359375 236.957031 946.699219 235.363281 C 946.039062 233.769531 945.335938 232.191406 944.597656 230.632812 C 943.859375 229.074219 943.085938 227.53125 942.269531 226.011719 C 941.457031 224.488281 940.605469 222.988281 939.71875 221.511719 C 938.832031 220.03125 937.910156 218.574219 936.949219 217.136719 C 935.992188 215.703125 934.996094 214.292969 933.96875 212.910156 C 932.941406 211.523438 931.878906 210.164062 930.785156 208.828125 C 929.691406 207.496094 928.5625 206.191406 927.40625 204.910156 C 926.246094 203.632812 925.054688 202.382812 923.835938 201.164062 C 922.617188 199.945312 921.367188 198.753906 920.089844 197.59375 C 918.808594 196.4375 917.503906 195.308594 916.171875 194.214844 C 914.835938 193.121094 913.476562 192.058594 912.089844 191.03125 C 910.707031 190.003906 909.296875 189.007812 907.859375 188.050781 C 906.425781 187.089844 904.96875 186.167969 903.488281 185.28125 C 902.011719 184.394531 900.511719 183.542969 898.988281 182.730469 C 897.46875 181.914062 895.925781 181.140625 894.367188 180.402344 C 892.808594 179.664062 891.230469 178.960938 889.636719 178.300781 C 888.042969 177.640625 886.433594 177.019531 884.808594 176.4375 C 883.1875 175.855469 881.546875 175.3125 879.898438 174.8125 C 878.246094 174.308594 876.585938 173.847656 874.910156 173.429688 C 873.238281 173.007812 871.554688 172.628906 869.863281 172.292969 C 868.171875 171.953125 866.472656 171.65625 864.765625 171.402344 C 863.058594 171.148438 861.347656 170.9375 859.628906 170.765625 C 857.914062 170.59375 856.191406 170.46875 854.46875 170.382812 C 852.746094 170.296875 851.019531 170.25 849.296875 170.25 Z M 945.761719 534.386719 C 945.761719 587.480469 902.480469 630.761719 849.296875 630.761719 L 590.613281 630.761719 C 589.035156 630.761719 587.460938 630.71875 585.886719 630.640625 C 584.3125 630.558594 582.738281 630.441406 581.171875 630.28125 C 579.601562 630.125 578.039062 629.929688 576.480469 629.695312 C 574.921875 629.460938 573.367188 629.191406 571.824219 628.882812 C 570.277344 628.570312 568.738281 628.222656 567.210938 627.839844 C 565.683594 627.453125 564.164062 627.03125 562.65625 626.574219 C 561.148438 626.113281 559.652344 625.617188 558.167969 625.085938 C 556.683594 624.550781 555.214844 623.984375 553.757812 623.378906 C 552.304688 622.773438 550.863281 622.132812 549.4375 621.457031 C 548.015625 620.785156 546.605469 620.074219 545.21875 619.328125 C 543.828125 618.585938 542.457031 617.808594 541.105469 616.996094 C 539.753906 616.183594 538.421875 615.339844 537.113281 614.464844 C 535.800781 613.589844 534.511719 612.679688 533.246094 611.742188 C 531.980469 610.800781 530.738281 609.832031 529.519531 608.832031 C 528.304688 607.832031 527.109375 606.800781 525.941406 605.742188 C 524.773438 604.683594 523.632812 603.597656 522.519531 602.480469 C 521.402344 601.367188 520.316406 600.226562 519.257812 599.058594 C 518.199219 597.890625 517.167969 596.695312 516.167969 595.480469 C 515.167969 594.261719 514.199219 593.019531 513.257812 591.753906 C 512.320312 590.488281 511.410156 589.199219 510.535156 587.886719 C 509.660156 586.578125 508.816406 585.246094 508.003906 583.894531 C 507.191406 582.542969 506.414062 581.171875 505.671875 579.78125 C 504.925781 578.394531 504.214844 576.984375 503.542969 575.5625 C 502.867188 574.136719 502.226562 572.695312 501.621094 571.242188 C 501.015625 569.785156 500.449219 568.316406 499.914062 566.832031 C 499.382812 565.347656 498.886719 563.851562 498.425781 562.34375 C 497.96875 560.835938 497.546875 559.316406 497.160156 557.789062 C 496.777344 556.257812 496.429688 554.722656 496.117188 553.175781 C 495.808594 551.632812 495.535156 550.078125 495.304688 548.519531 C 495.070312 546.960938 494.875 545.398438 494.71875 543.828125 C 494.558594 542.257812 494.441406 540.6875 494.359375 539.113281 C 494.28125 537.539062 494.238281 535.964844 494.238281 534.386719 L 494.238281 275.703125 C 494.238281 222.519531 537.519531 179.238281 590.613281 179.238281 L 849.296875 179.238281 C 850.875 179.238281 852.453125 179.277344 854.027344 179.355469 C 855.605469 179.4375 857.179688 179.554688 858.75 179.710938 C 860.320312 179.867188 861.886719 180.058594 863.445312 180.292969 C 865.007812 180.523438 866.5625 180.796875 868.109375 181.105469 C 869.65625 181.414062 871.195312 181.761719 872.726562 182.144531 C 874.257812 182.53125 875.777344 182.953125 877.289062 183.410156 C 878.796875 183.871094 880.296875 184.367188 881.78125 184.898438 C 883.269531 185.429688 884.738281 186 886.199219 186.605469 C 887.65625 187.207031 889.097656 187.847656 890.523438 188.523438 C 891.953125 189.199219 893.359375 189.910156 894.753906 190.652344 C 896.144531 191.398438 897.515625 192.175781 898.871094 192.988281 C 900.222656 193.800781 901.554688 194.644531 902.867188 195.523438 C 904.179688 196.398438 905.46875 197.308594 906.738281 198.25 C 908.003906 199.1875 909.25 200.160156 910.46875 201.160156 C 911.691406 202.164062 912.882812 203.195312 914.054688 204.253906 C 915.222656 205.3125 916.367188 206.402344 917.480469 207.519531 C 918.597656 208.632812 919.6875 209.777344 920.746094 210.945312 C 921.804688 212.117188 922.835938 213.308594 923.839844 214.53125 C 924.839844 215.75 925.8125 216.992188 926.75 218.261719 C 927.691406 219.527344 928.601562 220.820312 929.476562 222.132812 C 930.355469 223.445312 931.199219 224.777344 932.011719 226.128906 C 932.824219 227.484375 933.601562 228.855469 934.34375 230.246094 C 935.089844 231.640625 935.800781 233.046875 936.476562 234.476562 C 937.152344 235.902344 937.789062 237.34375 938.394531 238.800781 C 939 240.257812 939.570312 241.730469 940.101562 243.21875 C 940.632812 244.703125 941.128906 246.199219 941.589844 247.710938 C 942.046875 249.222656 942.46875 250.742188 942.855469 252.273438 C 943.238281 253.804688 943.585938 255.34375 943.894531 256.890625 C 944.203125 258.4375 944.472656 259.992188 944.707031 261.554688 C 944.941406 263.113281 945.132812 264.679688 945.289062 266.25 C 945.445312 267.820312 945.5625 269.394531 945.644531 270.972656 C 945.722656 272.546875 945.761719 274.125 945.761719 275.703125 Z M 851.589844 212.707031 L 588.320312 212.707031 C 586.332031 212.710938 584.351562 212.808594 582.371094 213.007812 C 580.394531 213.203125 578.433594 213.5 576.484375 213.886719 C 574.535156 214.277344 572.609375 214.761719 570.707031 215.339844 C 568.808594 215.917969 566.9375 216.589844 565.101562 217.351562 C 563.269531 218.113281 561.472656 218.964844 559.722656 219.902344 C 557.96875 220.839844 556.269531 221.859375 554.617188 222.964844 C 552.964844 224.070312 551.371094 225.253906 549.832031 226.515625 C 548.296875 227.773438 546.828125 229.109375 545.421875 230.511719 C 544.015625 231.917969 542.683594 233.390625 541.421875 234.925781 C 540.160156 236.460938 538.976562 238.054688 537.875 239.707031 C 536.769531 241.359375 535.746094 243.0625 534.808594 244.8125 C 533.871094 246.566406 533.023438 248.359375 532.261719 250.195312 C 531.5 252.03125 530.828125 253.898438 530.25 255.800781 C 529.671875 257.703125 529.1875 259.625 528.796875 261.574219 C 528.40625 263.523438 528.113281 265.488281 527.914062 267.464844 C 527.71875 269.441406 527.617188 271.425781 527.613281 273.410156 L 527.613281 536.679688 C 527.617188 538.667969 527.71875 540.648438 527.914062 542.628906 C 528.113281 544.605469 528.40625 546.566406 528.796875 548.515625 C 529.1875 550.464844 529.671875 552.390625 530.25 554.292969 C 530.828125 556.191406 531.5 558.0625 532.261719 559.898438 C 533.023438 561.730469 533.871094 563.527344 534.808594 565.277344 C 535.746094 567.03125 536.769531 568.730469 537.875 570.382812 C 538.976562 572.035156 540.160156 573.628906 541.421875 575.167969 C 542.683594 576.703125 544.015625 578.171875 545.421875 579.578125 C 546.828125 580.984375 548.296875 582.316406 549.832031 583.578125 C 551.371094 584.839844 552.964844 586.019531 554.617188 587.125 C 556.269531 588.230469 557.96875 589.253906 559.722656 590.191406 C 561.472656 591.128906 563.269531 591.976562 565.101562 592.738281 C 566.9375 593.5 568.808594 594.171875 570.707031 594.75 C 572.609375 595.328125 574.535156 595.8125 576.484375 596.203125 C 578.433594 596.59375 580.394531 596.886719 582.371094 597.085938 C 584.351562 597.28125 586.332031 597.382812 588.320312 597.386719 L 851.589844 597.386719 C 853.574219 597.382812 855.558594 597.28125 857.535156 597.085938 C 859.511719 596.886719 861.476562 596.59375 863.425781 596.203125 C 865.375 595.8125 867.296875 595.328125 869.199219 594.75 C 871.101562 594.171875 872.96875 593.5 874.804688 592.738281 C 876.640625 591.976562 878.433594 591.128906 880.1875 590.191406 C 881.9375 589.253906 883.640625 588.230469 885.292969 587.125 C 886.945312 586.019531 888.539062 584.839844 890.074219 583.578125 C 891.609375 582.316406 893.082031 580.984375 894.488281 579.578125 C 895.890625 578.171875 897.226562 576.703125 898.484375 575.167969 C 899.746094 573.628906 900.929688 572.035156 902.035156 570.382812 C 903.140625 568.730469 904.160156 567.03125 905.097656 565.277344 C 906.035156 563.527344 906.886719 561.730469 907.648438 559.898438 C 908.410156 558.0625 909.078125 556.191406 909.660156 554.292969 C 910.238281 552.390625 910.722656 550.464844 911.113281 548.515625 C 911.5 546.566406 911.796875 544.605469 911.992188 542.628906 C 912.191406 540.648438 912.289062 538.667969 912.292969 536.679688 L 912.292969 273.410156 C 912.289062 271.425781 912.191406 269.441406 911.992188 267.464844 C 911.796875 265.488281 911.5 263.523438 911.113281 261.574219 C 910.722656 259.625 910.238281 257.703125 909.660156 255.800781 C 909.078125 253.898438 908.410156 252.03125 907.648438 250.195312 C 906.886719 248.359375 906.035156 246.566406 905.097656 244.8125 C 904.160156 243.0625 903.140625 241.359375 902.035156 239.707031 C 900.929688 238.054688 899.746094 236.460938 898.484375 234.925781 C 897.226562 233.390625 895.890625 231.917969 894.488281 230.511719 C 893.082031 229.109375 891.609375 227.773438 890.074219 226.515625 C 888.539062 225.253906 886.945312 224.070312 885.292969 222.964844 C 883.640625 221.859375 881.9375 220.839844 880.1875 219.902344 C 878.433594 218.964844 876.640625 218.113281 874.804688 217.351562 C 872.96875 216.589844 871.101562 215.917969 869.199219 215.339844 C 867.296875 214.761719 865.375 214.277344 863.425781 213.886719 C 861.476562 213.5 859.511719 213.203125 857.535156 213.007812 C 855.558594 212.808594 853.574219 212.710938 851.589844 212.707031 Z M 903.304688 536.679688 C 903.304688 538.371094 903.21875 540.0625 903.050781 541.746094 C 902.878906 543.429688 902.628906 545.101562 902.296875 546.761719 C 901.964844 548.421875 901.550781 550.0625 901.058594 551.683594 C 900.566406 553.300781 899.996094 554.894531 899.34375 556.457031 C 898.695312 558.019531 897.972656 559.550781 897.171875 561.042969 C 896.375 562.535156 895.503906 563.984375 894.5625 565.390625 C 893.621094 566.800781 892.613281 568.15625 891.539062 569.464844 C 890.464844 570.773438 889.328125 572.027344 888.132812 573.222656 C 886.933594 574.421875 885.683594 575.554688 884.375 576.628906 C 883.066406 577.707031 881.707031 578.714844 880.300781 579.652344 C 878.890625 580.59375 877.441406 581.464844 875.949219 582.265625 C 874.457031 583.0625 872.929688 583.789062 871.367188 584.4375 C 869.800781 585.085938 868.210938 585.65625 866.589844 586.152344 C 864.972656 586.644531 863.332031 587.058594 861.671875 587.390625 C 860.011719 587.722656 858.339844 587.972656 856.65625 588.140625 C 854.96875 588.308594 853.28125 588.394531 851.589844 588.398438 L 588.320312 588.398438 C 586.625 588.394531 584.9375 588.308594 583.253906 588.140625 C 581.570312 587.972656 579.898438 587.722656 578.238281 587.390625 C 576.578125 587.058594 574.9375 586.644531 573.316406 586.152344 C 571.699219 585.65625 570.105469 585.085938 568.542969 584.4375 C 566.980469 583.789062 565.449219 583.0625 563.957031 582.265625 C 562.464844 581.464844 561.015625 580.59375 559.609375 579.652344 C 558.199219 578.714844 556.84375 577.707031 555.535156 576.632812 C 554.226562 575.554688 552.972656 574.421875 551.777344 573.222656 C 550.578125 572.027344 549.445312 570.773438 548.367188 569.464844 C 547.292969 568.15625 546.285156 566.800781 545.347656 565.390625 C 544.40625 563.984375 543.535156 562.535156 542.734375 561.042969 C 541.9375 559.550781 541.210938 558.019531 540.5625 556.457031 C 539.914062 554.894531 539.34375 553.300781 538.847656 551.683594 C 538.355469 550.0625 537.941406 548.421875 537.609375 546.761719 C 537.277344 545.101562 537.027344 543.429688 536.859375 541.746094 C 536.691406 540.0625 536.605469 538.371094 536.601562 536.679688 L 536.601562 273.410156 C 536.605469 271.71875 536.691406 270.03125 536.859375 268.34375 C 537.027344 266.660156 537.277344 264.988281 537.609375 263.328125 C 537.941406 261.667969 538.355469 260.027344 538.847656 258.410156 C 539.34375 256.789062 539.914062 255.199219 540.5625 253.632812 C 541.210938 252.070312 541.9375 250.542969 542.734375 249.050781 C 543.535156 247.558594 544.40625 246.105469 545.347656 244.699219 C 546.285156 243.292969 547.292969 241.933594 548.367188 240.625 C 549.445312 239.316406 550.578125 238.066406 551.777344 236.867188 C 552.972656 235.671875 554.226562 234.535156 555.535156 233.460938 C 556.84375 232.386719 558.199219 231.378906 559.609375 230.4375 C 561.015625 229.496094 562.464844 228.625 563.957031 227.828125 C 565.449219 227.027344 566.980469 226.304688 568.542969 225.65625 C 570.105469 225.003906 571.699219 224.433594 573.316406 223.941406 C 574.9375 223.449219 576.578125 223.035156 578.238281 222.703125 C 579.898438 222.371094 581.570312 222.117188 583.253906 221.949219 C 584.9375 221.78125 586.625 221.695312 588.320312 221.691406 L 851.589844 221.691406 C 853.28125 221.695312 854.96875 221.78125 856.65625 221.949219 C 858.339844 222.117188 860.011719 222.371094 861.671875 222.703125 C 863.332031 223.035156 864.972656 223.449219 866.589844 223.941406 C 868.210938 224.433594 869.800781 225.003906 871.367188 225.65625 C 872.929688 226.304688 874.457031 227.027344 875.949219 227.828125 C 877.441406 228.625 878.890625 229.496094 880.300781 230.4375 C 881.707031 231.378906 883.066406 232.386719 884.375 233.460938 C 885.683594 234.535156 886.933594 235.671875 888.132812 236.867188 C 889.328125 238.066406 890.464844 239.316406 891.539062 240.625 C 892.613281 241.933594 893.621094 243.292969 894.5625 244.699219 C 895.503906 246.105469 896.375 247.558594 897.171875 249.050781 C 897.972656 250.542969 898.695312 252.070312 899.34375 253.632812 C 899.996094 255.199219 900.566406 256.789062 901.058594 258.410156 C 901.550781 260.027344 901.964844 261.667969 902.296875 263.328125 C 902.628906 264.988281 902.878906 266.660156 903.050781 268.34375 C 903.21875 270.03125 903.304688 271.71875 903.304688 273.410156 Z M 903.304688 536.679688 " fill-opacity="1" fill-rule="nonzero"/></g><path fill="#e6e6e6" d="M 860.175781 413.882812 C 860.175781 416.117188 860.121094 418.351562 860.011719 420.582031 C 859.902344 422.8125 859.738281 425.042969 859.519531 427.265625 C 859.300781 429.488281 859.027344 431.707031 858.699219 433.914062 C 858.371094 436.125 857.988281 438.328125 857.550781 440.519531 C 857.117188 442.710938 856.628906 444.890625 856.085938 447.058594 C 855.542969 449.226562 854.945312 451.378906 854.296875 453.515625 C 853.648438 455.65625 852.949219 457.777344 852.195312 459.878906 C 851.441406 461.984375 850.636719 464.066406 849.78125 466.132812 C 848.925781 468.195312 848.023438 470.238281 847.066406 472.257812 C 846.113281 474.277344 845.105469 476.273438 844.054688 478.246094 C 843 480.214844 841.898438 482.160156 840.75 484.074219 C 839.601562 485.992188 838.40625 487.878906 837.164062 489.738281 C 835.925781 491.59375 834.636719 493.421875 833.308594 495.214844 C 831.976562 497.011719 830.601562 498.773438 829.183594 500.5 C 827.765625 502.226562 826.308594 503.917969 824.804688 505.574219 C 823.304688 507.230469 821.765625 508.847656 820.183594 510.425781 C 818.605469 512.007812 816.988281 513.546875 815.332031 515.046875 C 813.675781 516.550781 811.984375 518.007812 810.257812 519.425781 C 808.53125 520.84375 806.769531 522.21875 804.972656 523.546875 C 803.179688 524.878906 801.351562 526.164062 799.496094 527.40625 C 797.636719 528.648438 795.75 529.84375 793.832031 530.992188 C 791.917969 532.140625 789.972656 533.242188 788.003906 534.296875 C 786.03125 535.347656 784.035156 536.351562 782.015625 537.308594 C 779.996094 538.265625 777.953125 539.167969 775.890625 540.023438 C 773.824219 540.878906 771.742188 541.683594 769.636719 542.4375 C 767.535156 543.1875 765.414062 543.890625 763.273438 544.539062 C 761.136719 545.1875 758.984375 545.78125 756.816406 546.324219 C 754.648438 546.867188 752.46875 547.359375 750.277344 547.792969 C 748.085938 548.230469 745.882812 548.613281 743.675781 548.941406 C 741.464844 549.269531 739.246094 549.542969 737.023438 549.761719 C 734.800781 549.980469 732.570312 550.144531 730.339844 550.253906 C 728.109375 550.363281 725.875 550.417969 723.640625 550.417969 C 721.40625 550.417969 719.171875 550.363281 716.941406 550.253906 C 714.707031 550.144531 712.480469 549.980469 710.257812 549.761719 C 708.035156 549.542969 705.816406 549.269531 703.605469 548.941406 C 701.394531 548.613281 699.195312 548.230469 697.003906 547.792969 C 694.8125 547.359375 692.632812 546.867188 690.464844 546.324219 C 688.296875 545.78125 686.144531 545.1875 684.007812 544.539062 C 681.867188 543.890625 679.746094 543.1875 677.644531 542.4375 C 675.539062 541.683594 673.453125 540.878906 671.390625 540.023438 C 669.324219 539.167969 667.285156 538.265625 665.265625 537.308594 C 663.242188 536.351562 661.25 535.347656 659.277344 534.296875 C 657.308594 533.242188 655.363281 532.140625 653.445312 530.992188 C 651.53125 529.84375 649.644531 528.648438 647.785156 527.40625 C 645.925781 526.164062 644.101562 524.878906 642.304688 523.546875 C 640.511719 522.21875 638.75 520.84375 637.023438 519.425781 C 635.296875 518.007812 633.605469 516.550781 631.949219 515.046875 C 630.292969 513.546875 628.675781 512.007812 627.09375 510.425781 C 625.515625 508.847656 623.972656 507.230469 622.472656 505.574219 C 620.972656 503.917969 619.515625 502.226562 618.097656 500.5 C 616.679688 498.773438 615.304688 497.011719 613.972656 495.214844 C 612.644531 493.421875 611.355469 491.59375 610.113281 489.738281 C 608.875 487.878906 607.679688 485.992188 606.53125 484.074219 C 605.378906 482.160156 604.28125 480.214844 603.226562 478.246094 C 602.171875 476.273438 601.167969 474.277344 600.214844 472.257812 C 599.257812 470.238281 598.351562 468.195312 597.496094 466.132812 C 596.640625 464.066406 595.839844 461.984375 595.085938 459.878906 C 594.332031 457.777344 593.632812 455.65625 592.984375 453.515625 C 592.335938 451.378906 591.738281 449.226562 591.195312 447.058594 C 590.652344 444.890625 590.164062 442.710938 589.726562 440.519531 C 589.292969 438.328125 588.910156 436.125 588.582031 433.914062 C 588.253906 431.707031 587.980469 429.488281 587.761719 427.265625 C 587.542969 425.042969 587.378906 422.8125 587.269531 420.582031 C 587.160156 418.351562 587.105469 416.117188 587.105469 413.882812 C 587.105469 411.648438 587.160156 409.414062 587.269531 407.183594 C 587.378906 404.949219 587.542969 402.722656 587.761719 400.5 C 587.980469 398.273438 588.253906 396.058594 588.582031 393.847656 C 588.910156 391.636719 589.292969 389.4375 589.726562 387.246094 C 590.164062 385.054688 590.652344 382.875 591.195312 380.707031 C 591.738281 378.539062 592.335938 376.386719 592.984375 374.246094 C 593.632812 372.109375 594.332031 369.988281 595.085938 367.882812 C 595.839844 365.78125 596.640625 363.695312 597.496094 361.632812 C 598.351562 359.566406 599.257812 357.527344 600.214844 355.503906 C 601.167969 353.484375 602.171875 351.488281 603.226562 349.519531 C 604.28125 347.546875 605.378906 345.605469 606.53125 343.6875 C 607.679688 341.773438 608.875 339.882812 610.113281 338.027344 C 611.355469 336.167969 612.644531 334.34375 613.972656 332.546875 C 615.304688 330.753906 616.679688 328.992188 618.097656 327.265625 C 619.515625 325.539062 620.972656 323.847656 622.472656 322.191406 C 623.972656 320.535156 625.515625 318.917969 627.09375 317.335938 C 628.675781 315.757812 630.292969 314.214844 631.949219 312.714844 C 633.605469 311.214844 635.296875 309.757812 637.023438 308.339844 C 638.75 306.921875 640.511719 305.546875 642.304688 304.214844 C 644.101562 302.882812 645.925781 301.597656 647.785156 300.355469 C 649.644531 299.117188 651.53125 297.921875 653.445312 296.769531 C 655.363281 295.621094 657.308594 294.523438 659.277344 293.46875 C 661.25 292.414062 663.242188 291.410156 665.265625 290.457031 C 667.285156 289.5 669.324219 288.59375 671.390625 287.738281 C 673.453125 286.882812 675.539062 286.082031 677.644531 285.328125 C 679.746094 284.574219 681.867188 283.875 684.007812 283.226562 C 686.144531 282.578125 688.296875 281.980469 690.464844 281.4375 C 692.632812 280.894531 694.8125 280.40625 697.003906 279.96875 C 699.195312 279.535156 701.394531 279.152344 703.605469 278.824219 C 705.816406 278.496094 708.035156 278.222656 710.257812 278.003906 C 712.480469 277.785156 714.707031 277.621094 716.941406 277.511719 C 719.171875 277.402344 721.40625 277.347656 723.640625 277.347656 C 725.875 277.347656 728.109375 277.402344 730.339844 277.511719 C 732.570312 277.621094 734.800781 277.785156 737.023438 278.003906 C 739.246094 278.222656 741.464844 278.496094 743.675781 278.824219 C 745.882812 279.152344 748.085938 279.535156 750.277344 279.96875 C 752.46875 280.40625 754.648438 280.894531 756.816406 281.4375 C 758.984375 281.980469 761.136719 282.578125 763.273438 283.226562 C 765.414062 283.875 767.535156 284.574219 769.636719 285.328125 C 771.742188 286.082031 773.824219 286.882812 775.890625 287.738281 C 777.953125 288.59375 779.996094 289.5 782.015625 290.457031 C 784.035156 291.410156 786.03125 292.414062 788.003906 293.46875 C 789.972656 294.523438 791.917969 295.621094 793.832031 296.769531 C 795.75 297.921875 797.636719 299.117188 799.496094 300.355469 C 801.351562 301.597656 803.179688 302.882812 804.972656 304.214844 C 806.769531 305.546875 808.53125 306.921875 810.257812 308.339844 C 811.984375 309.757812 813.675781 311.214844 815.332031 312.714844 C 816.988281 314.214844 818.605469 315.757812 820.183594 317.335938 C 821.765625 318.917969 823.304688 320.535156 824.804688 322.191406 C 826.308594 323.847656 827.765625 325.539062 829.183594 327.265625 C 830.601562 328.992188 831.976562 330.753906 833.308594 332.546875 C 834.636719 334.34375 835.925781 336.167969 837.164062 338.027344 C 838.40625 339.882812 839.601562 341.773438 840.75 343.6875 C 841.898438 345.605469 843 347.550781 844.054688 349.519531 C 845.105469 351.488281 846.113281 353.484375 847.066406 355.503906 C 848.023438 357.527344 848.925781 359.566406 849.78125 361.632812 C 850.636719 363.695312 851.441406 365.78125 852.195312 367.882812 C 852.949219 369.988281 853.648438 372.109375 854.296875 374.246094 C 854.945312 376.386719 855.542969 378.539062 856.085938 380.707031 C 856.628906 382.875 857.117188 385.054688 857.550781 387.246094 C 857.988281 389.4375 858.371094 391.636719 858.699219 393.847656 C 859.027344 396.058594 859.300781 398.277344 859.519531 400.5 C 859.738281 402.722656 859.902344 404.949219 860.011719 407.183594 C 860.121094 409.414062 860.175781 411.648438 860.175781 413.882812 Z M 860.175781 413.882812 " fill-opacity="1" fill-rule="nonzero"/><path fill="#e6e6e6" d="M 654.976562 387.527344 L 670.707031 346.011719 L 732.613281 357.996094 L 791.566406 379.007812 L 826.554688 396.558594 L 858.132812 431.261719 L 843.589844 479.082031 L 817.125 467.609375 L 728.867188 427.285156 Z M 654.976562 387.527344 " fill-opacity="1" fill-rule="nonzero"/><path fill="#e6e6e6" d="M 604.484375 481.523438 L 606.753906 480.390625 C 608.230469 477.265625 612.207031 476.128906 612.207031 476.128906 L 602.210938 428.988281 L 606.015625 379.578125 L 629.984375 320.226562 L 602.210938 346.011719 L 588.921875 389.234375 L 587.105469 432.964844 L 598.066406 469.199219 L 602.269531 484.988281 " fill-opacity="1" fill-rule="nonzero"/><path fill="#e6e6e6" d="M 658.324219 533.777344 L 688.3125 514.75 L 720.0625 477.4375 L 762.714844 499.132812 L 736.023438 530.199219 L 715.574219 549.964844 L 675.761719 541.785156 L 658.324219 533.777344 " fill-opacity="1" fill-rule="nonzero"/><path fill="#e6e6e6" d="M 772.996094 310.289062 L 773.050781 286.546875 L 812.695312 310.289062 L 812.695312 326.757812 Z M 772.996094 310.289062 " fill-opacity="1" fill-rule="nonzero"/><path fill="#ffffff" d="M 670.765625 346.011719 L 694.277344 307.730469 L 709.382812 296.089844 L 776.914062 313.980469 L 817.125 333.574219 L 845.636719 352.316406 L 856.425781 383.554688 L 860.175781 423.308594 L 853.585938 423.308594 L 822.746094 394.628906 L 743.972656 359.699219 Z M 670.765625 346.011719 " fill-opacity="1" fill-rule="nonzero"/><path fill="#ffffff" d="M 654.804688 387.527344 L 654.804688 453.980469 L 750.789062 494.019531 L 810.195312 519.464844 L 834.5625 493.507812 L 838.933594 479.082031 Z M 654.804688 387.527344 " fill-opacity="1" fill-rule="nonzero"/><path fill="#ffffff" d="M 654.804688 453.980469 L 658.324219 378.667969 L 670.765625 346.011719 L 707.054688 296.089844 L 703.648438 276.210938 L 642.308594 300.0625 L 611.640625 356.292969 L 602.667969 423.308594 L 612.207031 476.128906 L 654.804688 453.980469 " fill-opacity="1" fill-rule="nonzero"/><path fill="#1f1f38" d="M 860.175781 413.882812 C 860.175781 389.175781 853.644531 366.003906 842.171875 346.011719 C 841.09375 344.988281 840.070312 344.023438 838.933594 343.058594 C 833.027344 337.832031 826.609375 333.175781 819.851562 329.144531 C 817.921875 327.949219 816.898438 326.585938 817.183594 324.089844 C 817.464844 321.136719 817.636719 318.125 817.75 315 C 815.308594 312.671875 812.808594 310.457031 810.195312 308.300781 C 810.140625 308.527344 810.140625 308.753906 810.082031 308.980469 C 809.289062 313.242188 809.914062 317.671875 809.058594 322.15625 C 806.449219 320.90625 803.949219 319.714844 801.507812 318.464844 C 793.726562 314.492188 785.832031 310.914062 777.765625 307.617188 C 777.027344 307.335938 776.402344 307.164062 776.6875 306.085938 C 778.617188 298.871094 776.003906 292.679688 772.996094 286.546875 C 769.132812 285.070312 765.15625 283.707031 761.125 282.570312 C 764.476562 288.589844 767.429688 294.726562 768.566406 301.65625 C 769.132812 304.949219 768.734375 305.289062 765.613281 304.496094 C 751.8125 300.972656 738.007812 297.394531 723.867188 295.179688 C 720.574219 294.667969 717.222656 294.269531 713.871094 293.988281 C 712.507812 293.875 711.769531 293.363281 711.484375 292 C 710.519531 287.285156 709.269531 282.742188 707.398438 278.367188 C 704.5 278.710938 701.605469 279.164062 698.765625 279.675781 C 699.390625 280.582031 699.898438 281.492188 700.355469 282.515625 C 701.945312 286.148438 702.851562 289.953125 703.761719 293.816406 C 703.988281 294.839844 703.988281 295.691406 702.964844 296.429688 C 687.972656 307.84375 677.125 322.667969 668.433594 339.195312 C 667.695312 340.617188 666.789062 341.921875 666.050781 343.285156 C 658.4375 357.144531 653.328125 371.851562 651.054688 387.472656 C 651 387.8125 650.773438 397.296875 650.773438 397.296875 L 650.542969 410.472656 C 650.542969 410.472656 649.296875 433.023438 650.714844 448.640625 C 650.886719 450.457031 650.429688 451.539062 649.011719 452.671875 C 639.242188 460.453125 628.847656 467.097656 617.660156 472.664062 C 616.011719 473.515625 615.730469 472.835938 615.273438 471.527344 C 611.925781 461.136719 609.539062 450.515625 608.003906 439.667969 C 606.753906 430.75 605.960938 421.832031 605.960938 412.804688 C 606.015625 385.996094 611.753906 360.609375 624.816406 337.09375 C 634.871094 318.921875 648.441406 303.757812 664.742188 290.976562 C 665.140625 290.636719 665.59375 290.351562 665.992188 290.011719 C 652.988281 296.144531 641.003906 304.265625 630.554688 313.980469 C 615.84375 332.949219 606.246094 354.417969 601.304688 378.101562 C 597.667969 395.820312 596.757812 413.710938 598.292969 431.714844 C 599.542969 446.710938 602.097656 461.476562 606.527344 475.902344 C 606.925781 477.265625 606.8125 478.003906 605.335938 478.457031 C 604.769531 478.628906 604.199219 478.855469 603.6875 479.027344 C 604.996094 481.410156 606.359375 483.683594 607.777344 486.011719 C 624.589844 479.367188 639.867188 469.996094 654.066406 458.75 C 654.859375 458.125 655.371094 457.445312 656.621094 458.125 C 669.402344 465.28125 683.03125 470.507812 696.378906 476.300781 C 701.320312 478.402344 706.203125 480.558594 711.144531 482.660156 C 712.28125 483.117188 712.792969 483.511719 711.714844 484.707031 C 703.195312 494.078125 695.1875 503.960938 685.417969 512.082031 C 676.386719 519.578125 666.675781 525.996094 655.316406 529.347656 C 654.238281 529.628906 653.214844 529.914062 652.136719 530.085938 C 655.316406 532.074219 658.609375 533.890625 661.960938 535.59375 C 669.289062 532.753906 675.988281 529.007812 682.351562 524.574219 C 693.652344 516.679688 703.023438 506.683594 712.054688 496.347656 C 714.554688 493.507812 717.109375 490.726562 719.609375 487.886719 C 720.515625 486.863281 721.3125 486.636719 722.617188 487.203125 C 733.636719 491.917969 744.65625 496.632812 755.503906 501.628906 C 757.148438 502.367188 756.980469 502.9375 756.183594 504.300781 C 750.335938 514.578125 741.417969 522.078125 732.953125 529.972656 C 725.570312 536.84375 717.789062 543.261719 709.894531 549.566406 C 713.816406 549.964844 717.789062 550.191406 721.765625 550.246094 C 727.273438 545.761719 732.386719 541.273438 737.441406 536.671875 C 747.550781 527.472656 757.488281 518.042969 765.441406 506.742188 C 766.40625 505.378906 767.144531 505.605469 768.339844 506.117188 C 779.640625 511 791 515.660156 802.527344 519.976562 C 804.0625 520.542969 803.378906 521.339844 803.210938 522.132812 C 802.925781 523.269531 802.585938 524.347656 802.1875 525.371094 C 837.289062 500.777344 860.175781 460 860.175781 413.882812 Z M 686.15625 327.269531 C 692.0625 319.089844 698.421875 311.253906 705.921875 304.4375 C 707.226562 303.246094 708.476562 302.960938 710.238281 303.1875 C 727.898438 305.460938 745.394531 308.640625 762.546875 313.523438 C 782.878906 319.375 802.414062 327.042969 820.191406 338.796875 C 827.574219 343.683594 834.335938 349.25 840.523438 355.667969 C 845.183594 360.496094 848.136719 366.003906 849.667969 372.648438 C 852.734375 385.996094 855.179688 399.457031 855.460938 413.199219 C 855.460938 414.109375 855.460938 415.074219 855.40625 415.984375 C 855.347656 417.0625 855.179688 418.085938 855.0625 419.164062 C 854.15625 418.992188 853.871094 418.367188 853.417969 417.914062 C 836.320312 398.886719 815.25 385.484375 792.25 374.921875 C 761.691406 360.835938 729.546875 352.257812 696.492188 346.464844 C 690.359375 345.386719 684.222656 344.648438 678.035156 343.738281 C 677.296875 343.625 676.613281 343.457031 675.761719 343.230469 C 678.828125 337.492188 682.464844 332.324219 686.15625 327.269531 Z M 660.539062 379.519531 C 662.699219 370.09375 666.050781 361.0625 670.308594 352.371094 C 670.820312 351.292969 671.332031 350.894531 672.582031 351.066406 C 713.246094 356.179688 752.832031 365.492188 790.203125 382.757812 C 811.558594 392.640625 831.097656 405.191406 847.054688 422.855469 C 848.761719 424.730469 850.292969 426.71875 851.941406 428.648438 C 853.757812 430.808594 852.90625 433.476562 853.53125 436.542969 C 851.601562 447.84375 849.101562 459.546875 841.660156 469.484375 C 838.820312 473.289062 838.652344 473.234375 834.164062 471.644531 C 820.703125 466.871094 807.867188 460.566406 795.03125 454.433594 C 751.640625 433.761719 708.875 411.722656 666.503906 389.003906 C 665.710938 388.550781 664.914062 388.097656 664.117188 387.644531 C 659.347656 384.859375 659.292969 384.859375 660.539062 379.519531 Z M 815.648438 507.480469 C 814.058594 508.84375 812.242188 509.980469 810.367188 510.886719 C 807.355469 512.363281 804.460938 512.476562 801.222656 511.117188 C 764.078125 495.609375 726.820312 480.277344 689.675781 464.828125 C 680.363281 460.964844 671.160156 456.988281 662.1875 452.332031 C 660.539062 451.480469 659.746094 450.402344 659.574219 448.527344 C 658.042969 430.921875 657.699219 413.3125 659.40625 395.707031 C 659.460938 395.367188 659.519531 395.082031 659.574219 394.742188 C 660.769531 394.742188 661.449219 395.539062 662.359375 395.992188 C 713.417969 423.253906 764.875 449.890625 817.636719 473.746094 C 822.691406 476.015625 827.800781 478.117188 833.085938 479.765625 C 834.164062 480.105469 834.957031 480.390625 834.21875 481.808594 C 829.222656 491.125 823.996094 500.4375 815.648438 507.480469 Z M 815.648438 507.480469 " fill-opacity="1" fill-rule="nonzero"/><g mask="url(#7a006f41a6)"><g transform="matrix(1, 0, 0, 1, 659, 370)"><g clip-path="url(#edc9cd893d)"><g clip-path="url(#4925ad0e05)"><path fill="#1f1f38" d="M 0.6875 151.054688 C 19.261719 161.789062 40.785156 167.921875 63.730469 167.921875 C 133.363281 167.921875 189.875 111.46875 189.875 41.78125 C 189.875 27.296875 187.429688 13.441406 182.945312 0.492188 C 182.945312 0.492188 160.851562 49.5625 104.398438 92.726562 C 47.941406 135.890625 0.6875 151.054688 0.6875 151.054688 Z M 0.6875 151.054688 " fill-opacity="1" fill-rule="nonzero"/></g></g></g></g><g clip-path="url(#254c0531b7)"><path fill="#1f1f38" d="M 723.640625 554.507812 C 686.097656 554.507812 650.773438 539.855469 624.191406 513.332031 C 597.613281 486.75 583.015625 451.421875 583.015625 413.882812 C 583.015625 376.339844 597.667969 341.015625 624.191406 314.433594 C 650.773438 287.851562 686.042969 273.257812 723.640625 273.257812 C 761.183594 273.257812 796.507812 287.851562 823.089844 314.433594 C 849.667969 341.015625 864.265625 376.285156 864.265625 413.882812 C 864.265625 451.421875 849.613281 486.75 823.089844 513.332031 C 796.566406 539.910156 761.183594 554.507812 723.640625 554.507812 Z M 723.640625 281.433594 C 688.257812 281.433594 654.976562 295.238281 629.984375 320.226562 C 604.996094 345.214844 591.195312 378.5 591.195312 413.882812 C 591.195312 449.265625 604.996094 482.546875 629.984375 507.539062 C 654.976562 532.527344 688.257812 546.328125 723.640625 546.328125 C 759.023438 546.328125 792.304688 532.527344 817.296875 507.539062 C 842.285156 482.546875 856.085938 449.265625 856.085938 413.882812 C 856.085938 378.5 842.285156 345.214844 817.296875 320.226562 C 792.25 295.179688 759.023438 281.433594 723.640625 281.433594 Z M 723.640625 281.433594 " fill-opacity="1" fill-rule="nonzero"/></g></svg>