<svg xmlns="http://www.w3.org/2000/svg" xmlns:xlink="http://www.w3.org/1999/xlink" width="1920" zoomAndPan="magnify" viewBox="0 0 1440 809.999993" height="1080" preserveAspectRatio="xMidYMid meet" version="1.0"><defs><clipPath id="b8a098b6e9"><path d="M 559.445312 275 L 895.445312 275 L 895.445312 525.390625 L 559.445312 525.390625 Z M 559.445312 275 " clip-rule="nonzero"/></clipPath></defs><path fill="#ffbd59" d="M 852.1875 165 L 587.71875 165 C 528.28125 165 480 213.375 480 272.8125 L 480 537.28125 C 480 539.042969 480.046875 540.804688 480.132812 542.566406 C 480.222656 544.324219 480.351562 546.082031 480.527344 547.835938 C 480.703125 549.589844 480.917969 551.339844 481.179688 553.082031 C 481.4375 554.824219 481.742188 556.5625 482.085938 558.289062 C 482.429688 560.019531 482.816406 561.738281 483.246094 563.445312 C 483.675781 565.15625 484.148438 566.855469 484.660156 568.539062 C 485.171875 570.226562 485.726562 571.898438 486.320312 573.558594 C 486.914062 575.21875 487.550781 576.859375 488.226562 578.488281 C 488.898438 580.117188 489.613281 581.726562 490.367188 583.320312 C 491.121094 584.914062 491.914062 586.488281 492.746094 588.039062 C 493.578125 589.59375 494.445312 591.128906 495.355469 592.640625 C 496.261719 594.152344 497.203125 595.640625 498.183594 597.105469 C 499.164062 598.570312 500.175781 600.011719 501.226562 601.425781 C 502.277344 602.839844 503.363281 604.230469 504.480469 605.59375 C 505.597656 606.953125 506.75 608.289062 507.933594 609.59375 C 509.117188 610.898438 510.332031 612.175781 511.578125 613.421875 C 512.824219 614.667969 514.101562 615.882812 515.40625 617.066406 C 516.710938 618.25 518.046875 619.402344 519.40625 620.519531 C 520.769531 621.636719 522.160156 622.722656 523.574219 623.773438 C 524.988281 624.824219 526.429688 625.835938 527.894531 626.816406 C 529.359375 627.796875 530.847656 628.738281 532.359375 629.644531 C 533.871094 630.554688 535.40625 631.421875 536.957031 632.253906 C 538.511719 633.085938 540.085938 633.878906 541.679688 634.632812 C 543.273438 635.386719 544.882812 636.101562 546.511719 636.773438 C 548.140625 637.449219 549.78125 638.085938 551.441406 638.679688 C 553.101562 639.273438 554.773438 639.828125 556.460938 640.339844 C 558.144531 640.851562 559.84375 641.324219 561.554688 641.753906 C 563.261719 642.183594 564.980469 642.570312 566.710938 642.914062 C 568.4375 643.257812 570.175781 643.5625 571.917969 643.820312 C 573.660156 644.082031 575.410156 644.296875 577.164062 644.472656 C 578.917969 644.648438 580.675781 644.777344 582.433594 644.867188 C 584.195312 644.953125 585.957031 645 587.71875 645 L 852.1875 645 C 911.625 645 960 596.71875 960 537.28125 L 960 272.8125 C 960 271.046875 959.953125 269.285156 959.867188 267.523438 C 959.777344 265.761719 959.648438 264.003906 959.472656 262.246094 C 959.296875 260.492188 959.082031 258.742188 958.820312 256.996094 C 958.5625 255.253906 958.257812 253.515625 957.914062 251.785156 C 957.566406 250.054688 957.179688 248.335938 956.75 246.625 C 956.320312 244.914062 955.847656 243.214844 955.335938 241.527344 C 954.824219 239.839844 954.269531 238.164062 953.675781 236.503906 C 953.078125 234.84375 952.445312 233.199219 951.769531 231.570312 C 951.09375 229.941406 950.378906 228.328125 949.621094 226.734375 C 948.867188 225.140625 948.074219 223.5625 947.242188 222.007812 C 946.410156 220.453125 945.539062 218.917969 944.632812 217.40625 C 943.726562 215.894531 942.78125 214.402344 941.800781 212.9375 C 940.820312 211.472656 939.804688 210.027344 938.753906 208.613281 C 937.703125 207.195312 936.617188 205.804688 935.5 204.441406 C 934.378906 203.078125 933.226562 201.742188 932.042969 200.4375 C 930.859375 199.128906 929.640625 197.851562 928.394531 196.605469 C 927.148438 195.359375 925.871094 194.140625 924.5625 192.957031 C 923.257812 191.773438 921.921875 190.621094 920.558594 189.5 C 919.195312 188.382812 917.804688 187.296875 916.386719 186.246094 C 914.972656 185.195312 913.527344 184.179688 912.0625 183.199219 C 910.597656 182.21875 909.105469 181.273438 907.59375 180.367188 C 906.082031 179.460938 904.546875 178.589844 902.992188 177.757812 C 901.4375 176.925781 899.859375 176.132812 898.265625 175.378906 C 896.671875 174.621094 895.058594 173.90625 893.429688 173.230469 C 891.800781 172.554688 890.15625 171.921875 888.496094 171.324219 C 886.835938 170.730469 885.160156 170.175781 883.472656 169.664062 C 881.785156 169.152344 880.085938 168.679688 878.375 168.25 C 876.664062 167.820312 874.945312 167.433594 873.214844 167.085938 C 871.484375 166.742188 869.746094 166.4375 868.003906 166.179688 C 866.257812 165.917969 864.507812 165.703125 862.753906 165.527344 C 860.996094 165.351562 859.238281 165.222656 857.476562 165.132812 C 855.714844 165.046875 853.953125 165 852.1875 165 Z M 950.8125 537.28125 C 950.8125 591.5625 906.5625 635.8125 852.1875 635.8125 L 587.71875 635.8125 C 586.105469 635.808594 584.496094 635.765625 582.886719 635.683594 C 581.277344 635.601562 579.671875 635.480469 578.066406 635.320312 C 576.464844 635.160156 574.863281 634.960938 573.269531 634.722656 C 571.675781 634.484375 570.089844 634.203125 568.507812 633.886719 C 566.929688 633.570312 565.355469 633.214844 563.792969 632.824219 C 562.230469 632.429688 560.679688 631.996094 559.136719 631.527344 C 557.597656 631.058594 556.066406 630.550781 554.550781 630.007812 C 553.03125 629.460938 551.53125 628.878906 550.042969 628.261719 C 548.554688 627.644531 547.082031 626.988281 545.625 626.300781 C 544.167969 625.609375 542.730469 624.882812 541.308594 624.121094 C 539.886719 623.363281 538.484375 622.566406 537.105469 621.738281 C 535.722656 620.910156 534.363281 620.046875 533.023438 619.148438 C 531.683594 618.253906 530.367188 617.324219 529.070312 616.363281 C 527.777344 615.402344 526.507812 614.414062 525.261719 613.390625 C 524.015625 612.367188 522.796875 611.3125 521.601562 610.230469 C 520.40625 609.148438 519.242188 608.039062 518.101562 606.898438 C 516.960938 605.757812 515.851562 604.59375 514.769531 603.398438 C 513.6875 602.203125 512.632812 600.984375 511.609375 599.738281 C 510.585938 598.492188 509.597656 597.222656 508.636719 595.929688 C 507.675781 594.632812 506.746094 593.316406 505.851562 591.976562 C 504.953125 590.636719 504.089844 589.277344 503.261719 587.894531 C 502.433594 586.515625 501.636719 585.113281 500.878906 583.691406 C 500.117188 582.269531 499.390625 580.832031 498.699219 579.375 C 498.011719 577.917969 497.355469 576.445312 496.738281 574.957031 C 496.121094 573.46875 495.539062 571.96875 494.992188 570.449219 C 494.449219 568.933594 493.941406 567.402344 493.472656 565.863281 C 493.003906 564.320312 492.570312 562.769531 492.175781 561.207031 C 491.785156 559.644531 491.429688 558.070312 491.113281 556.492188 C 490.796875 554.910156 490.515625 553.324219 490.277344 551.730469 C 490.039062 550.136719 489.839844 548.535156 489.679688 546.933594 C 489.519531 545.328125 489.398438 543.722656 489.316406 542.113281 C 489.234375 540.503906 489.191406 538.894531 489.1875 537.28125 L 489.1875 272.8125 C 489.1875 218.4375 533.4375 174.1875 587.71875 174.1875 L 852.1875 174.1875 C 853.800781 174.1875 855.414062 174.230469 857.027344 174.3125 C 858.636719 174.390625 860.246094 174.511719 861.851562 174.671875 C 863.457031 174.832031 865.058594 175.027344 866.652344 175.265625 C 868.25 175.503906 869.839844 175.78125 871.421875 176.097656 C 873.003906 176.414062 874.578125 176.769531 876.144531 177.160156 C 877.707031 177.554688 879.261719 177.984375 880.804688 178.457031 C 882.351562 178.925781 883.882812 179.429688 885.402344 179.976562 C 886.917969 180.519531 888.425781 181.101562 889.914062 181.71875 C 891.40625 182.339844 892.878906 182.992188 894.339844 183.683594 C 895.796875 184.375 897.238281 185.097656 898.660156 185.859375 C 900.082031 186.621094 901.488281 187.417969 902.871094 188.246094 C 904.253906 189.078125 905.617188 189.941406 906.957031 190.835938 C 908.300781 191.734375 909.617188 192.664062 910.914062 193.625 C 912.210938 194.585938 913.480469 195.578125 914.730469 196.601562 C 915.976562 197.625 917.199219 198.679688 918.394531 199.765625 C 919.589844 200.847656 920.757812 201.960938 921.898438 203.101562 C 923.039062 204.242188 924.152344 205.410156 925.234375 206.605469 C 926.320312 207.800781 927.375 209.023438 928.398438 210.269531 C 929.421875 211.519531 930.414062 212.789062 931.375 214.085938 C 932.335938 215.382812 933.265625 216.699219 934.164062 218.042969 C 935.058594 219.382812 935.921875 220.746094 936.753906 222.128906 C 937.582031 223.511719 938.378906 224.917969 939.140625 226.339844 C 939.902344 227.761719 940.625 229.203125 941.316406 230.660156 C 942.007812 232.121094 942.660156 233.59375 943.28125 235.085938 C 943.898438 236.574219 944.480469 238.082031 945.023438 239.597656 C 945.570312 241.117188 946.074219 242.648438 946.542969 244.195312 C 947.015625 245.738281 947.445312 247.292969 947.839844 248.855469 C 948.230469 250.421875 948.585938 251.996094 948.902344 253.578125 C 949.21875 255.160156 949.496094 256.75 949.734375 258.347656 C 949.972656 259.941406 950.167969 261.542969 950.328125 263.148438 C 950.488281 264.753906 950.609375 266.363281 950.6875 267.972656 C 950.769531 269.585938 950.8125 271.199219 950.8125 272.8125 Z M 854.53125 208.40625 L 585.375 208.40625 C 583.34375 208.410156 581.316406 208.511719 579.292969 208.714844 C 577.273438 208.914062 575.265625 209.214844 573.273438 209.613281 C 571.28125 210.011719 569.3125 210.507812 567.371094 211.101562 C 565.425781 211.691406 563.515625 212.375 561.640625 213.15625 C 559.761719 213.933594 557.929688 214.804688 556.136719 215.761719 C 554.347656 216.722656 552.605469 217.765625 550.917969 218.894531 C 549.226562 220.023438 547.597656 221.234375 546.027344 222.523438 C 544.457031 223.8125 542.953125 225.175781 541.515625 226.613281 C 540.082031 228.046875 538.71875 229.550781 537.429688 231.121094 C 536.140625 232.691406 534.929688 234.320312 533.800781 236.011719 C 532.671875 237.699219 531.628906 239.441406 530.667969 241.230469 C 529.710938 243.023438 528.839844 244.855469 528.0625 246.734375 C 527.28125 248.609375 526.597656 250.519531 526.007812 252.464844 C 525.414062 254.40625 524.917969 256.375 524.519531 258.367188 C 524.121094 260.359375 523.820312 262.367188 523.621094 264.386719 C 523.417969 266.410156 523.316406 268.4375 523.3125 270.46875 L 523.3125 539.625 C 523.316406 541.65625 523.417969 543.683594 523.621094 545.707031 C 523.820312 547.726562 524.121094 549.734375 524.519531 551.726562 C 524.917969 553.71875 525.414062 555.6875 526.007812 557.628906 C 526.597656 559.574219 527.28125 561.484375 528.0625 563.359375 C 528.839844 565.238281 529.710938 567.070312 530.667969 568.863281 C 531.628906 570.652344 532.671875 572.394531 533.800781 574.082031 C 534.929688 575.773438 536.140625 577.402344 537.429688 578.972656 C 538.71875 580.542969 540.082031 582.046875 541.515625 583.484375 C 542.953125 584.917969 544.457031 586.28125 546.027344 587.570312 C 547.597656 588.859375 549.226562 590.070312 550.917969 591.199219 C 552.605469 592.328125 554.347656 593.371094 556.136719 594.332031 C 557.929688 595.289062 559.761719 596.160156 561.640625 596.9375 C 563.515625 597.71875 565.425781 598.402344 567.371094 598.992188 C 569.3125 599.585938 571.28125 600.082031 573.273438 600.480469 C 575.265625 600.878906 577.273438 601.179688 579.292969 601.378906 C 581.316406 601.582031 583.34375 601.683594 585.375 601.6875 L 854.53125 601.6875 C 856.5625 601.683594 858.589844 601.582031 860.613281 601.378906 C 862.632812 601.179688 864.640625 600.878906 866.632812 600.480469 C 868.625 600.082031 870.59375 599.585938 872.535156 598.992188 C 874.480469 598.402344 876.390625 597.71875 878.265625 596.9375 C 880.144531 596.160156 881.976562 595.289062 883.769531 594.332031 C 885.558594 593.371094 887.300781 592.328125 888.988281 591.199219 C 890.679688 590.070312 892.308594 588.859375 893.878906 587.570312 C 895.449219 586.28125 896.953125 584.917969 898.390625 583.484375 C 899.824219 582.046875 901.1875 580.542969 902.476562 578.972656 C 903.765625 577.402344 904.976562 575.773438 906.105469 574.082031 C 907.234375 572.394531 908.277344 570.652344 909.238281 568.863281 C 910.195312 567.070312 911.066406 565.238281 911.84375 563.359375 C 912.625 561.484375 913.308594 559.574219 913.898438 557.628906 C 914.492188 555.6875 914.988281 553.71875 915.386719 551.726562 C 915.785156 549.734375 916.085938 547.726562 916.285156 545.707031 C 916.488281 543.683594 916.589844 541.65625 916.59375 539.625 L 916.59375 270.46875 C 916.589844 268.4375 916.488281 266.410156 916.285156 264.386719 C 916.085938 262.367188 915.785156 260.359375 915.386719 258.367188 C 914.988281 256.375 914.492188 254.40625 913.898438 252.464844 C 913.308594 250.519531 912.625 248.609375 911.84375 246.734375 C 911.066406 244.855469 910.195312 243.023438 909.238281 241.230469 C 908.277344 239.441406 907.234375 237.699219 906.105469 236.011719 C 904.976562 234.320312 903.765625 232.691406 902.476562 231.121094 C 901.1875 229.550781 899.824219 228.046875 898.386719 226.609375 C 896.953125 225.175781 895.449219 223.8125 893.878906 222.523438 C 892.308594 221.234375 890.679688 220.023438 888.988281 218.894531 C 887.300781 217.765625 885.558594 216.722656 883.769531 215.761719 C 881.976562 214.804688 880.144531 213.933594 878.265625 213.15625 C 876.390625 212.375 874.480469 211.691406 872.535156 211.101562 C 870.59375 210.507812 868.625 210.011719 866.632812 209.613281 C 864.640625 209.214844 862.632812 208.914062 860.613281 208.714844 C 858.589844 208.511719 856.5625 208.410156 854.53125 208.40625 Z M 907.40625 539.625 C 907.402344 541.355469 907.316406 543.082031 907.144531 544.804688 C 906.972656 546.527344 906.714844 548.238281 906.375 549.933594 C 906.035156 551.632812 905.613281 553.308594 905.109375 554.964844 C 904.605469 556.621094 904.019531 558.246094 903.355469 559.84375 C 902.691406 561.445312 901.953125 563.003906 901.136719 564.53125 C 900.316406 566.058594 899.429688 567.539062 898.464844 568.980469 C 897.503906 570.417969 896.472656 571.804688 895.375 573.144531 C 894.277344 574.480469 893.117188 575.761719 891.890625 576.984375 C 890.667969 578.210938 889.386719 579.371094 888.050781 580.46875 C 886.710938 581.566406 885.324219 582.597656 883.886719 583.558594 C 882.445312 584.523438 880.964844 585.410156 879.4375 586.230469 C 877.910156 587.046875 876.351562 587.785156 874.75 588.449219 C 873.152344 589.113281 871.523438 589.699219 869.871094 590.203125 C 868.214844 590.707031 866.539062 591.128906 864.839844 591.46875 C 863.144531 591.808594 861.433594 592.066406 859.710938 592.238281 C 857.988281 592.410156 856.261719 592.496094 854.53125 592.5 L 585.375 592.5 C 583.644531 592.496094 581.917969 592.410156 580.195312 592.238281 C 578.472656 592.066406 576.761719 591.808594 575.066406 591.46875 C 573.367188 591.128906 571.691406 590.707031 570.035156 590.203125 C 568.378906 589.699219 566.753906 589.113281 565.15625 588.449219 C 563.554688 587.785156 561.996094 587.046875 560.46875 586.230469 C 558.941406 585.410156 557.460938 584.523438 556.019531 583.558594 C 554.582031 582.597656 553.195312 581.566406 551.855469 580.46875 C 550.519531 579.371094 549.238281 578.210938 548.015625 576.984375 C 546.789062 575.761719 545.628906 574.480469 544.53125 573.144531 C 543.433594 571.804688 542.402344 570.417969 541.441406 568.980469 C 540.476562 567.539062 539.589844 566.058594 538.769531 564.53125 C 537.953125 563.003906 537.214844 561.445312 536.550781 559.84375 C 535.886719 558.246094 535.300781 556.621094 534.796875 554.964844 C 534.292969 553.308594 533.871094 551.632812 533.53125 549.933594 C 533.191406 548.238281 532.933594 546.527344 532.761719 544.804688 C 532.589844 543.082031 532.503906 541.355469 532.5 539.625 L 532.5 270.46875 C 532.503906 268.738281 532.589844 267.011719 532.761719 265.289062 C 532.933594 263.566406 533.191406 261.855469 533.53125 260.160156 C 533.871094 258.460938 534.292969 256.785156 534.796875 255.128906 C 535.300781 253.472656 535.886719 251.847656 536.550781 250.25 C 537.214844 248.648438 537.953125 247.089844 538.769531 245.5625 C 539.585938 244.035156 540.476562 242.554688 541.441406 241.113281 C 542.402344 239.675781 543.433594 238.289062 544.53125 236.949219 C 545.628906 235.613281 546.789062 234.332031 548.015625 233.109375 C 549.238281 231.882812 550.519531 230.722656 551.855469 229.625 C 553.195312 228.527344 554.582031 227.496094 556.019531 226.535156 C 557.460938 225.570312 558.941406 224.683594 560.46875 223.863281 C 561.996094 223.046875 563.554688 222.308594 565.15625 221.644531 C 566.753906 220.980469 568.378906 220.394531 570.035156 219.890625 C 571.691406 219.386719 573.367188 218.964844 575.066406 218.625 C 576.761719 218.285156 578.472656 218.027344 580.195312 217.855469 C 581.917969 217.683594 583.644531 217.597656 585.375 217.59375 L 854.53125 217.59375 C 856.261719 217.597656 857.988281 217.683594 859.710938 217.855469 C 861.433594 218.027344 863.144531 218.285156 864.839844 218.625 C 866.539062 218.964844 868.214844 219.386719 869.871094 219.890625 C 871.523438 220.394531 873.152344 220.980469 874.75 221.644531 C 876.347656 222.308594 877.910156 223.046875 879.4375 223.863281 C 880.964844 224.683594 882.445312 225.570312 883.886719 226.535156 C 885.324219 227.496094 886.710938 228.527344 888.050781 229.625 C 889.386719 230.722656 890.667969 231.882812 891.890625 233.109375 C 893.117188 234.332031 894.277344 235.613281 895.375 236.949219 C 896.472656 238.289062 897.503906 239.675781 898.464844 241.113281 C 899.429688 242.554688 900.316406 244.035156 901.136719 245.5625 C 901.953125 247.089844 902.691406 248.648438 903.355469 250.25 C 904.019531 251.847656 904.605469 253.476562 905.109375 255.128906 C 905.613281 256.785156 906.035156 258.460938 906.375 260.160156 C 906.714844 261.855469 906.972656 263.566406 907.144531 265.289062 C 907.316406 267.011719 907.402344 268.738281 907.40625 270.46875 Z M 907.40625 539.625 " fill-opacity="1" fill-rule="nonzero"/><g clip-path="url(#b8a098b6e9)"><path fill="#ffffff" d="M 887.410156 371.679688 C 887.363281 370.976562 887.195312 370.28125 886.9375 369.632812 C 881.546875 341 856.957031 323.265625 825.292969 323.265625 C 813.964844 323.265625 797.804688 319.761719 785.1875 342.152344 L 727.726562 342.152344 C 728.578125 330.964844 731.4375 325.792969 734.695312 321.148438 C 739.480469 314.324219 744.914062 305.898438 744.914062 283.242188 C 744.914062 279.367188 741.796875 275.898438 737.925781 275.898438 C 734.054688 275.898438 730.9375 278.855469 730.9375 282.714844 C 730.9375 300.953125 727.378906 307.320312 723.242188 313.214844 C 719.226562 318.945312 714.71875 319.773438 713.691406 342.152344 L 669.683594 342.152344 C 657.066406 319.773438 640.90625 323.265625 629.578125 323.265625 C 598.0625 323.265625 572.59375 343.539062 567.597656 374.164062 C 565.214844 405.183594 559.679688 477.242188 559.679688 479.578125 C 559.679688 504.0625 579.273438 525.367188 601.617188 525.367188 C 621.601562 525.367188 634.609375 517.914062 640.292969 503.445312 C 640.371094 503.3125 640.449219 503.132812 640.503906 502.988281 L 654.941406 469.195312 C 660.800781 473.648438 668.808594 479.121094 678.507812 479.121094 C 695.742188 479.121094 711.746094 465.222656 717.882812 454.035156 L 737.066406 454.035156 C 743.082031 465.222656 758.738281 477.117188 776.398438 477.117188 C 785.835938 477.117188 793.566406 474.613281 799.816406 470.917969 L 814.457031 503.378906 C 814.511719 503.503906 814.578125 503.425781 814.636719 503.570312 C 820.316406 518.015625 833.324219 525.253906 853.296875 525.253906 C 876.011719 525.253906 895.238281 505.070312 895.238281 481.246094 C 895.191406 478.929688 889.757812 403.839844 887.410156 371.679688 Z M 643.558594 409.265625 L 626.78125 409.265625 L 626.78125 423.253906 C 626.78125 427.136719 625.058594 430.246094 621.1875 430.246094 C 617.320312 430.246094 615.597656 427.136719 615.597656 423.253906 L 615.597656 409.265625 L 601.617188 409.265625 C 597.746094 409.265625 594.628906 407.554688 594.628906 403.671875 C 594.628906 399.800781 597.746094 398.078125 601.617188 398.078125 L 615.597656 398.078125 L 615.597656 381.292969 C 615.597656 377.421875 617.320312 374.300781 621.1875 374.300781 C 625.058594 374.300781 626.78125 377.433594 626.78125 381.292969 L 626.78125 398.078125 L 643.558594 398.078125 C 647.425781 398.078125 650.546875 399.800781 650.546875 403.671875 C 650.546875 407.554688 647.425781 409.265625 643.558594 409.265625 Z M 713.457031 409.265625 L 699.476562 409.265625 C 695.605469 409.265625 692.484375 407.554688 692.484375 403.671875 C 692.484375 399.800781 695.605469 398.078125 699.476562 398.078125 L 713.457031 398.078125 C 717.324219 398.078125 720.445312 399.800781 720.445312 403.671875 C 720.445312 407.554688 717.324219 409.265625 713.457031 409.265625 Z M 755.394531 409.265625 L 741.414062 409.265625 C 737.546875 409.265625 734.425781 407.554688 734.425781 403.671875 C 734.425781 399.800781 737.546875 398.078125 741.414062 398.078125 L 755.394531 398.078125 C 759.265625 398.078125 762.386719 399.800781 762.386719 403.671875 C 762.386719 407.554688 759.265625 409.265625 755.394531 409.265625 Z M 797.335938 437.238281 C 789.628906 437.238281 783.355469 430.972656 783.355469 423.253906 C 783.355469 415.554688 789.628906 409.265625 797.335938 409.265625 C 805.050781 409.265625 811.3125 415.554688 811.3125 423.253906 C 811.3125 430.984375 805.050781 437.238281 797.335938 437.238281 Z M 797.335938 395.28125 C 789.628906 395.28125 783.355469 389.023438 783.355469 381.292969 C 783.355469 373.582031 789.628906 367.304688 797.335938 367.304688 C 805.050781 367.304688 811.3125 373.582031 811.3125 381.292969 C 811.3125 389.023438 805.050781 395.28125 797.335938 395.28125 Z M 839.273438 437.238281 C 831.566406 437.238281 825.292969 430.972656 825.292969 423.253906 C 825.292969 415.554688 831.566406 409.265625 839.273438 409.265625 C 846.992188 409.265625 853.253906 415.554688 853.253906 423.253906 C 853.253906 430.984375 846.992188 437.238281 839.273438 437.238281 Z M 839.273438 395.28125 C 831.566406 395.28125 825.292969 389.023438 825.292969 381.292969 C 825.292969 373.582031 831.566406 367.304688 839.273438 367.304688 C 846.992188 367.304688 853.253906 373.582031 853.253906 381.292969 C 853.253906 389.023438 846.992188 395.28125 839.273438 395.28125 Z M 839.273438 395.28125 " fill-opacity="1" fill-rule="nonzero"/></g></svg>