<svg xmlns="http://www.w3.org/2000/svg" xmlns:xlink="http://www.w3.org/1999/xlink" width="1920" zoomAndPan="magnify" viewBox="0 0 1440 809.999993" height="1080" preserveAspectRatio="xMidYMid meet" version="1.0"><defs><clipPath id="2fff49ecbc"><path d="M 533.25 218.25 L 906.75 218.25 L 906.75 591.75 L 533.25 591.75 Z M 533.25 218.25 " clip-rule="nonzero"/></clipPath><clipPath id="66528e3f43"><path d="M 617 311.21875 L 823 311.21875 L 823 498.71875 L 617 498.71875 Z M 617 311.21875 " clip-rule="nonzero"/></clipPath><clipPath id="486d54a527"><path d="M 600.949219 436 L 613 436 L 613 477 L 600.949219 477 Z M 600.949219 436 " clip-rule="nonzero"/></clipPath><clipPath id="6dbfef5193"><path d="M 827 436 L 838.699219 436 L 838.699219 477 L 827 477 Z M 827 436 " clip-rule="nonzero"/></clipPath></defs><g clip-path="url(#2fff49ecbc)"><path fill="#ff914d" d="M 822.859375 218.25 L 617.070312 218.25 C 570.820312 218.25 533.25 255.890625 533.25 302.140625 L 533.25 507.929688 C 533.25 509.304688 533.285156 510.671875 533.355469 512.042969 C 533.421875 513.414062 533.523438 514.78125 533.660156 516.144531 C 533.796875 517.507812 533.964844 518.871094 534.167969 520.226562 C 534.367188 521.582031 534.605469 522.933594 534.871094 524.277344 C 535.140625 525.625 535.441406 526.960938 535.777344 528.292969 C 536.109375 529.621094 536.476562 530.941406 536.875 532.253906 C 537.273438 533.566406 537.707031 534.867188 538.167969 536.160156 C 538.628906 537.449219 539.125 538.730469 539.648438 539.996094 C 540.175781 541.261719 540.730469 542.515625 541.316406 543.753906 C 541.90625 544.996094 542.523438 546.21875 543.167969 547.429688 C 543.816406 548.636719 544.492188 549.832031 545.195312 551.007812 C 545.902344 552.183594 546.636719 553.339844 547.398438 554.480469 C 548.160156 555.621094 548.949219 556.742188 549.765625 557.84375 C 550.585938 558.945312 551.429688 560.027344 552.296875 561.085938 C 553.167969 562.144531 554.0625 563.183594 554.984375 564.199219 C 555.90625 565.214844 556.851562 566.207031 557.820312 567.179688 C 558.789062 568.148438 559.785156 569.09375 560.800781 570.015625 C 561.816406 570.9375 562.855469 571.832031 563.914062 572.703125 C 564.972656 573.570312 566.054688 574.414062 567.15625 575.234375 C 568.257812 576.050781 569.378906 576.839844 570.519531 577.601562 C 571.660156 578.363281 572.816406 579.097656 573.992188 579.804688 C 575.167969 580.507812 576.363281 581.183594 577.570312 581.832031 C 578.78125 582.476562 580.003906 583.09375 581.246094 583.683594 C 582.484375 584.269531 583.738281 584.824219 585.003906 585.351562 C 586.269531 585.875 587.550781 586.371094 588.839844 586.832031 C 590.132812 587.292969 591.433594 587.726562 592.746094 588.125 C 594.058594 588.523438 595.378906 588.890625 596.707031 589.222656 C 598.039062 589.558594 599.375 589.859375 600.722656 590.128906 C 602.066406 590.394531 603.417969 590.632812 604.773438 590.832031 C 606.128906 591.035156 607.492188 591.203125 608.855469 591.339844 C 610.21875 591.476562 611.585938 591.578125 612.957031 591.644531 C 614.328125 591.714844 615.695312 591.75 617.070312 591.75 L 822.859375 591.75 C 869.109375 591.75 906.75 554.179688 906.75 507.929688 L 906.75 302.140625 C 906.75 300.769531 906.714844 299.398438 906.644531 298.027344 C 906.578125 296.65625 906.476562 295.285156 906.339844 293.921875 C 906.203125 292.554688 906.035156 291.195312 905.832031 289.835938 C 905.628906 288.476562 905.394531 287.125 905.125 285.78125 C 904.855469 284.433594 904.554688 283.09375 904.222656 281.765625 C 903.886719 280.433594 903.519531 279.109375 903.121094 277.796875 C 902.722656 276.484375 902.289062 275.179688 901.828125 273.890625 C 901.363281 272.597656 900.871094 271.316406 900.34375 270.050781 C 899.820312 268.78125 899.261719 267.527344 898.675781 266.285156 C 898.085938 265.046875 897.46875 263.820312 896.824219 262.609375 C 896.175781 261.398438 895.5 260.207031 894.792969 259.027344 C 894.085938 257.851562 893.351562 256.691406 892.589844 255.550781 C 891.828125 254.410156 891.035156 253.289062 890.21875 252.1875 C 889.402344 251.082031 888.554688 250 887.683594 248.941406 C 886.8125 247.878906 885.917969 246.839844 884.996094 245.824219 C 884.074219 244.808594 883.128906 243.8125 882.15625 242.84375 C 881.1875 241.871094 880.191406 240.925781 879.175781 240.003906 C 878.160156 239.082031 877.121094 238.1875 876.058594 237.316406 C 875 236.445312 873.917969 235.597656 872.8125 234.78125 C 871.710938 233.964844 870.589844 233.171875 869.449219 232.410156 C 868.308594 231.648438 867.148438 230.914062 865.972656 230.207031 C 864.792969 229.5 863.601562 228.824219 862.390625 228.175781 C 861.179688 227.53125 859.953125 226.914062 858.714844 226.324219 C 857.472656 225.738281 856.21875 225.179688 854.949219 224.65625 C 853.683594 224.128906 852.402344 223.636719 851.109375 223.171875 C 849.820312 222.707031 848.515625 222.277344 847.203125 221.878906 C 845.890625 221.480469 844.566406 221.113281 843.234375 220.777344 C 841.90625 220.445312 840.566406 220.144531 839.21875 219.875 C 837.875 219.605469 836.523438 219.371094 835.164062 219.167969 C 833.804688 218.964844 832.445312 218.796875 831.078125 218.660156 C 829.714844 218.523438 828.34375 218.421875 826.972656 218.355469 C 825.601562 218.285156 824.230469 218.25 822.859375 218.25 Z M 899.601562 507.929688 C 899.601562 550.167969 865.167969 584.601562 822.859375 584.601562 L 617.070312 584.601562 C 615.816406 584.597656 614.5625 584.566406 613.308594 584.5 C 612.054688 584.4375 610.804688 584.34375 609.558594 584.21875 C 608.308594 584.09375 607.066406 583.9375 605.824219 583.753906 C 604.585938 583.566406 603.351562 583.351562 602.121094 583.105469 C 600.890625 582.855469 599.667969 582.582031 598.453125 582.273438 C 597.238281 581.96875 596.027344 581.632812 594.828125 581.265625 C 593.628906 580.902344 592.4375 580.507812 591.257812 580.082031 C 590.078125 579.660156 588.910156 579.207031 587.75 578.726562 C 586.59375 578.246094 585.445312 577.734375 584.3125 577.199219 C 583.179688 576.660156 582.0625 576.097656 580.957031 575.503906 C 579.851562 574.914062 578.757812 574.292969 577.683594 573.648438 C 576.609375 573.003906 575.550781 572.332031 574.507812 571.636719 C 573.464844 570.9375 572.441406 570.214844 571.433594 569.46875 C 570.425781 568.722656 569.4375 567.949219 568.46875 567.152344 C 567.5 566.359375 566.550781 565.539062 565.621094 564.695312 C 564.691406 563.855469 563.785156 562.988281 562.898438 562.101562 C 562.011719 561.214844 561.144531 560.308594 560.304688 559.378906 C 559.460938 558.449219 558.640625 557.5 557.847656 556.53125 C 557.050781 555.5625 556.277344 554.574219 555.53125 553.566406 C 554.785156 552.558594 554.0625 551.535156 553.363281 550.492188 C 552.667969 549.449219 551.996094 548.390625 551.351562 547.316406 C 550.707031 546.242188 550.085938 545.148438 549.496094 544.042969 C 548.902344 542.9375 548.339844 541.820312 547.800781 540.6875 C 547.265625 539.554688 546.753906 538.40625 546.273438 537.25 C 545.792969 536.089844 545.339844 534.921875 544.917969 533.742188 C 544.492188 532.5625 544.097656 531.371094 543.734375 530.171875 C 543.367188 528.972656 543.03125 527.761719 542.726562 526.546875 C 542.417969 525.332031 542.144531 524.109375 541.894531 522.878906 C 541.648438 521.648438 541.433594 520.414062 541.246094 519.175781 C 541.0625 517.933594 540.90625 516.691406 540.78125 515.441406 C 540.65625 514.195312 540.5625 512.945312 540.5 511.691406 C 540.433594 510.4375 540.402344 509.183594 540.398438 507.929688 L 540.398438 302.140625 C 540.398438 259.832031 574.832031 225.398438 617.070312 225.398438 L 822.859375 225.398438 C 824.113281 225.398438 825.367188 225.433594 826.621094 225.496094 C 827.875 225.558594 829.128906 225.652344 830.378906 225.773438 C 831.628906 225.898438 832.875 226.054688 834.113281 226.238281 C 835.355469 226.425781 836.59375 226.640625 837.824219 226.886719 C 839.054688 227.132812 840.28125 227.40625 841.5 227.714844 C 842.714844 228.019531 843.925781 228.355469 845.128906 228.71875 C 846.328125 229.085938 847.519531 229.480469 848.703125 229.902344 C 849.882812 230.328125 851.054688 230.777344 852.214844 231.261719 C 853.375 231.742188 854.523438 232.25 855.65625 232.789062 C 856.792969 233.324219 857.914062 233.890625 859.019531 234.480469 C 860.128906 235.074219 861.21875 235.695312 862.296875 236.339844 C 863.371094 236.984375 864.433594 237.65625 865.476562 238.355469 C 866.519531 239.050781 867.546875 239.777344 868.554688 240.523438 C 869.5625 241.273438 870.554688 242.042969 871.523438 242.839844 C 872.496094 243.636719 873.445312 244.457031 874.375 245.300781 C 875.304688 246.144531 876.214844 247.011719 877.101562 247.898438 C 877.988281 248.785156 878.855469 249.695312 879.699219 250.625 C 880.542969 251.554688 881.363281 252.503906 882.160156 253.476562 C 882.957031 254.445312 883.726562 255.4375 884.476562 256.445312 C 885.222656 257.453125 885.945312 258.480469 886.644531 259.523438 C 887.34375 260.566406 888.015625 261.628906 888.660156 262.703125 C 889.304688 263.78125 889.925781 264.871094 890.519531 265.980469 C 891.109375 267.085938 891.675781 268.207031 892.210938 269.34375 C 892.75 270.476562 893.257812 271.625 893.738281 272.785156 C 894.222656 273.945312 894.671875 275.117188 895.097656 276.296875 C 895.519531 277.480469 895.914062 278.671875 896.28125 279.871094 C 896.644531 281.074219 896.980469 282.285156 897.285156 283.5 C 897.59375 284.71875 897.867188 285.945312 898.113281 287.175781 C 898.359375 288.40625 898.574219 289.644531 898.761719 290.882812 C 898.945312 292.125 899.101562 293.371094 899.226562 294.621094 C 899.347656 295.871094 899.441406 297.121094 899.503906 298.378906 C 899.566406 299.632812 899.601562 300.886719 899.601562 302.140625 Z M 824.683594 252.027344 L 615.246094 252.027344 C 613.664062 252.027344 612.085938 252.109375 610.515625 252.265625 C 608.941406 252.421875 607.378906 252.65625 605.828125 252.964844 C 604.277344 253.277344 602.746094 253.660156 601.234375 254.121094 C 599.722656 254.582031 598.234375 255.113281 596.777344 255.722656 C 595.316406 256.328125 593.886719 257.003906 592.496094 257.75 C 591.101562 258.496094 589.746094 259.308594 588.433594 260.1875 C 587.117188 261.066406 585.851562 262.007812 584.628906 263.007812 C 583.40625 264.011719 582.234375 265.074219 581.117188 266.191406 C 580 267.308594 578.941406 268.480469 577.9375 269.699219 C 576.933594 270.921875 575.992188 272.191406 575.113281 273.503906 C 574.234375 274.820312 573.421875 276.171875 572.675781 277.566406 C 571.929688 278.960938 571.253906 280.386719 570.648438 281.847656 C 570.042969 283.308594 569.507812 284.796875 569.046875 286.308594 C 568.589844 287.820312 568.203125 289.351562 567.890625 290.902344 C 567.582031 292.453125 567.347656 294.011719 567.191406 295.585938 C 567.035156 297.160156 566.953125 298.738281 566.953125 300.316406 L 566.953125 509.753906 C 566.953125 511.335938 567.035156 512.914062 567.191406 514.484375 C 567.347656 516.058594 567.582031 517.621094 567.890625 519.171875 C 568.203125 520.722656 568.589844 522.253906 569.046875 523.765625 C 569.507812 525.277344 570.042969 526.765625 570.648438 528.222656 C 571.253906 529.683594 571.929688 531.113281 572.675781 532.503906 C 573.421875 533.898438 574.234375 535.253906 575.113281 536.566406 C 575.992188 537.882812 576.933594 539.148438 577.9375 540.371094 C 578.941406 541.59375 580 542.765625 581.117188 543.882812 C 582.234375 545 583.40625 546.058594 584.628906 547.0625 C 585.851562 548.066406 587.117188 549.007812 588.433594 549.886719 C 589.746094 550.765625 591.101562 551.578125 592.496094 552.324219 C 593.886719 553.070312 595.316406 553.746094 596.777344 554.351562 C 598.234375 554.957031 599.722656 555.492188 601.234375 555.953125 C 602.746094 556.410156 604.277344 556.796875 605.828125 557.109375 C 607.378906 557.417969 608.941406 557.652344 610.515625 557.808594 C 612.085938 557.964844 613.664062 558.046875 615.246094 558.046875 L 824.683594 558.046875 C 826.261719 558.046875 827.839844 557.964844 829.414062 557.808594 C 830.988281 557.652344 832.546875 557.417969 834.097656 557.109375 C 835.648438 556.796875 837.179688 556.410156 838.691406 555.953125 C 840.203125 555.492188 841.691406 554.957031 843.152344 554.351562 C 844.613281 553.746094 846.039062 553.070312 847.433594 552.324219 C 848.828125 551.578125 850.179688 550.765625 851.496094 549.886719 C 852.808594 549.007812 854.078125 548.066406 855.300781 547.0625 C 856.519531 546.058594 857.691406 545 858.808594 543.882812 C 859.925781 542.761719 860.988281 541.59375 861.992188 540.371094 C 862.992188 539.148438 863.933594 537.882812 864.8125 536.566406 C 865.691406 535.253906 866.503906 533.898438 867.25 532.503906 C 867.996094 531.113281 868.671875 529.683594 869.277344 528.222656 C 869.886719 526.765625 870.417969 525.277344 870.878906 523.765625 C 871.339844 522.253906 871.722656 520.722656 872.035156 519.171875 C 872.34375 517.621094 872.578125 516.058594 872.734375 514.484375 C 872.890625 512.914062 872.972656 511.335938 872.972656 509.753906 L 872.972656 300.316406 C 872.972656 298.738281 872.890625 297.160156 872.734375 295.585938 C 872.578125 294.011719 872.34375 292.453125 872.035156 290.902344 C 871.722656 289.351562 871.339844 287.820312 870.878906 286.308594 C 870.417969 284.796875 869.886719 283.308594 869.277344 281.847656 C 868.671875 280.386719 867.996094 278.960938 867.25 277.566406 C 866.503906 276.171875 865.691406 274.820312 864.8125 273.503906 C 863.933594 272.191406 862.992188 270.921875 861.992188 269.699219 C 860.988281 268.480469 859.925781 267.308594 858.808594 266.191406 C 857.691406 265.074219 856.519531 264.011719 855.296875 263.007812 C 854.078125 262.007812 852.808594 261.066406 851.496094 260.1875 C 850.179688 259.308594 848.828125 258.496094 847.433594 257.75 C 846.039062 257.003906 844.613281 256.328125 843.152344 255.722656 C 841.691406 255.113281 840.203125 254.582031 838.691406 254.121094 C 837.179688 253.660156 835.648438 253.277344 834.097656 252.964844 C 832.546875 252.65625 830.988281 252.421875 829.414062 252.265625 C 827.839844 252.109375 826.261719 252.027344 824.683594 252.027344 Z M 865.824219 509.753906 C 865.824219 511.101562 865.753906 512.445312 865.621094 513.785156 C 865.488281 515.125 865.289062 516.457031 865.023438 517.777344 C 864.757812 519.097656 864.429688 520.402344 864.039062 521.691406 C 863.644531 522.980469 863.191406 524.246094 862.675781 525.488281 C 862.15625 526.734375 861.582031 527.949219 860.945312 529.136719 C 860.308594 530.324219 859.617188 531.476562 858.871094 532.597656 C 858.121094 533.714844 857.320312 534.796875 856.464844 535.835938 C 855.609375 536.878906 854.707031 537.875 853.753906 538.828125 C 852.800781 539.777344 851.804688 540.683594 850.761719 541.535156 C 849.722656 542.390625 848.640625 543.195312 847.523438 543.941406 C 846.402344 544.691406 845.25 545.382812 844.0625 546.019531 C 842.875 546.65625 841.660156 547.230469 840.414062 547.746094 C 839.171875 548.261719 837.90625 548.71875 836.617188 549.109375 C 835.328125 549.503906 834.023438 549.832031 832.703125 550.097656 C 831.382812 550.359375 830.050781 550.558594 828.710938 550.695312 C 827.371094 550.828125 826.027344 550.894531 824.683594 550.898438 L 615.246094 550.898438 C 613.898438 550.894531 612.554688 550.828125 611.214844 550.695312 C 609.875 550.558594 608.542969 550.359375 607.222656 550.097656 C 605.902344 549.832031 604.597656 549.503906 603.308594 549.109375 C 602.019531 548.71875 600.753906 548.261719 599.511719 547.746094 C 598.265625 547.230469 597.050781 546.65625 595.863281 546.019531 C 594.675781 545.382812 593.523438 544.691406 592.402344 543.941406 C 591.285156 543.195312 590.203125 542.390625 589.164062 541.535156 C 588.121094 540.683594 587.125 539.777344 586.171875 538.828125 C 585.222656 537.875 584.316406 536.878906 583.464844 535.835938 C 582.609375 534.796875 581.804688 533.714844 581.058594 532.597656 C 580.308594 531.476562 579.617188 530.324219 578.980469 529.136719 C 578.34375 527.949219 577.769531 526.734375 577.253906 525.488281 C 576.738281 524.246094 576.28125 522.980469 575.890625 521.691406 C 575.496094 520.402344 575.167969 519.097656 574.902344 517.777344 C 574.640625 516.457031 574.441406 515.125 574.304688 513.785156 C 574.171875 512.445312 574.105469 511.101562 574.101562 509.753906 L 574.101562 300.316406 C 574.105469 298.972656 574.171875 297.628906 574.304688 296.289062 C 574.441406 294.945312 574.640625 293.617188 574.902344 292.296875 C 575.167969 290.976562 575.496094 289.671875 575.890625 288.382812 C 576.28125 287.09375 576.734375 285.828125 577.253906 284.585938 C 577.769531 283.339844 578.34375 282.125 578.980469 280.9375 C 579.617188 279.75 580.308594 278.597656 581.058594 277.476562 C 581.804688 276.359375 582.609375 275.277344 583.464844 274.238281 C 584.316406 273.195312 585.222656 272.199219 586.171875 271.246094 C 587.125 270.292969 588.121094 269.390625 589.164062 268.535156 C 590.203125 267.679688 591.285156 266.878906 592.402344 266.128906 C 593.523438 265.382812 594.675781 264.691406 595.863281 264.054688 C 597.050781 263.417969 598.265625 262.84375 599.511719 262.324219 C 600.753906 261.808594 602.019531 261.355469 603.308594 260.960938 C 604.597656 260.570312 605.902344 260.242188 607.222656 259.976562 C 608.542969 259.710938 609.875 259.511719 611.214844 259.378906 C 612.554688 259.246094 613.898438 259.175781 615.246094 259.175781 L 824.683594 259.175781 C 826.027344 259.175781 827.371094 259.246094 828.710938 259.378906 C 830.050781 259.511719 831.382812 259.710938 832.703125 259.976562 C 834.023438 260.242188 835.328125 260.570312 836.617188 260.960938 C 837.90625 261.355469 839.171875 261.808594 840.414062 262.324219 C 841.660156 262.84375 842.875 263.417969 844.0625 264.054688 C 845.25 264.691406 846.402344 265.382812 847.523438 266.128906 C 848.640625 266.878906 849.722656 267.679688 850.761719 268.535156 C 851.804688 269.390625 852.800781 270.292969 853.753906 271.246094 C 854.707031 272.199219 855.609375 273.195312 856.464844 274.238281 C 857.320312 275.277344 858.121094 276.359375 858.871094 277.476562 C 859.617188 278.597656 860.308594 279.75 860.945312 280.9375 C 861.582031 282.125 862.15625 283.339844 862.675781 284.585938 C 863.191406 285.828125 863.644531 287.09375 864.039062 288.382812 C 864.429688 289.671875 864.757812 290.976562 865.023438 292.296875 C 865.289062 293.617188 865.488281 294.945312 865.621094 296.289062 C 865.753906 297.628906 865.824219 298.972656 865.824219 300.316406 Z M 865.824219 509.753906 " fill-opacity="1" fill-rule="nonzero"/></g><g clip-path="url(#66528e3f43)"><path fill="#ffffff" d="M 822.289062 431.039062 C 822.980469 421.230469 824.808594 371.839844 794.859375 339.355469 C 777.183594 320.183594 752.050781 310.761719 720.152344 311.390625 C 688.265625 310.789062 663.121094 320.1875 645.445312 339.355469 C 616.253906 371.015625 617.25 418.738281 617.960938 430.21875 C 617.539062 431.808594 617.3125 433.476562 617.3125 435.199219 L 617.3125 479.242188 C 617.3125 489.925781 625.953125 498.582031 636.621094 498.582031 L 650.027344 498.582031 C 660.691406 498.582031 669.335938 489.925781 669.335938 479.242188 L 669.335938 435.199219 C 669.335938 424.519531 660.691406 415.863281 650.027344 415.863281 L 636.621094 415.863281 C 635.164062 415.863281 633.746094 416.03125 632.382812 416.335938 C 633.113281 398.773438 637.371094 369.449219 656.136719 349.140625 C 670.910156 333.15625 692.433594 325.316406 720.007812 325.894531 L 720.152344 325.898438 L 720.300781 325.894531 C 747.882812 325.339844 769.398438 333.15625 784.167969 349.140625 C 802.957031 369.46875 807.203125 398.839844 807.925781 416.394531 C 806.484375 416.050781 804.980469 415.863281 803.433594 415.863281 L 790.023438 415.863281 C 779.359375 415.863281 770.714844 424.519531 770.714844 435.199219 L 770.714844 479.242188 C 770.714844 489.925781 779.359375 498.582031 790.023438 498.582031 L 803.433594 498.582031 C 814.097656 498.582031 822.742188 489.925781 822.742188 479.242188 L 822.742188 435.199219 C 822.742188 433.769531 822.582031 432.378906 822.289062 431.039062 Z M 822.289062 431.039062 " fill-opacity="1" fill-rule="nonzero"/></g><g clip-path="url(#486d54a527)"><path fill="#ffffff" d="M 612.617188 436.277344 L 600.949219 443.121094 L 600.949219 469.308594 L 612.617188 476.960938 " fill-opacity="1" fill-rule="nonzero"/></g><g clip-path="url(#6dbfef5193)"><path fill="#ffffff" d="M 827.035156 436.277344 L 838.699219 443.121094 L 838.699219 469.308594 L 827.035156 476.960938 " fill-opacity="1" fill-rule="nonzero"/></g></svg>