<svg xmlns="http://www.w3.org/2000/svg" xmlns:xlink="http://www.w3.org/1999/xlink" width="1920" zoomAndPan="magnify" viewBox="0 0 1440 809.999993" height="1080" preserveAspectRatio="xMidYMid meet" version="1.0"><defs><clipPath id="a825595d70"><path d="M 455.25 140.25 L 984.75 140.25 L 984.75 669.75 L 455.25 669.75 Z M 455.25 140.25 " clip-rule="nonzero"/></clipPath><clipPath id="24c76b3268"><path d="M 543 256.425781 L 896.878906 256.425781 L 896.878906 531.675781 L 543 531.675781 Z M 543 256.425781 " clip-rule="nonzero"/></clipPath></defs><g clip-path="url(#a825595d70)"><path fill="#c1ff72" d="M 865.820312 140.25 L 574.078125 140.25 C 508.511719 140.25 455.25 193.613281 455.25 259.179688 L 455.25 550.921875 C 455.25 552.867188 455.300781 554.808594 455.398438 556.75 C 455.496094 558.695312 455.640625 560.632812 455.832031 562.566406 C 456.023438 564.5 456.261719 566.429688 456.550781 568.351562 C 456.835938 570.277344 457.167969 572.191406 457.550781 574.097656 C 457.929688 576.003906 458.359375 577.902344 458.832031 579.785156 C 459.304688 581.671875 459.824219 583.542969 460.390625 585.40625 C 460.957031 587.265625 461.566406 589.109375 462.222656 590.941406 C 462.878906 592.769531 463.578125 594.585938 464.324219 596.378906 C 465.066406 598.175781 465.855469 599.953125 466.6875 601.710938 C 467.519531 603.46875 468.394531 605.203125 469.3125 606.917969 C 470.226562 608.632812 471.1875 610.324219 472.1875 611.988281 C 473.1875 613.65625 474.226562 615.300781 475.308594 616.914062 C 476.386719 618.53125 477.507812 620.121094 478.667969 621.683594 C 479.824219 623.242188 481.019531 624.777344 482.253906 626.277344 C 483.488281 627.78125 484.757812 629.253906 486.0625 630.691406 C 487.367188 632.132812 488.710938 633.542969 490.082031 634.917969 C 491.457031 636.289062 492.867188 637.632812 494.308594 638.9375 C 495.746094 640.242188 497.21875 641.511719 498.722656 642.746094 C 500.222656 643.980469 501.757812 645.175781 503.316406 646.332031 C 504.878906 647.492188 506.46875 648.613281 508.085938 649.691406 C 509.699219 650.773438 511.34375 651.8125 513.011719 652.8125 C 514.675781 653.8125 516.367188 654.773438 518.082031 655.6875 C 519.796875 656.605469 521.53125 657.480469 523.289062 658.3125 C 525.046875 659.144531 526.824219 659.933594 528.621094 660.675781 C 530.414062 661.421875 532.230469 662.121094 534.058594 662.777344 C 535.890625 663.433594 537.734375 664.042969 539.59375 664.609375 C 541.457031 665.175781 543.328125 665.695312 545.214844 666.167969 C 547.097656 666.640625 548.996094 667.070312 550.902344 667.449219 C 552.808594 667.832031 554.722656 668.164062 556.648438 668.449219 C 558.570312 668.738281 560.5 668.976562 562.433594 669.167969 C 564.367188 669.359375 566.304688 669.503906 568.25 669.601562 C 570.191406 669.699219 572.132812 669.75 574.078125 669.75 L 865.820312 669.75 C 931.386719 669.75 984.75 616.488281 984.75 550.921875 L 984.75 259.179688 C 984.75 257.234375 984.699219 255.289062 984.601562 253.347656 C 984.503906 251.402344 984.359375 249.464844 984.167969 247.527344 C 983.976562 245.589844 983.734375 243.660156 983.449219 241.734375 C 983.164062 239.808594 982.828125 237.894531 982.449219 235.984375 C 982.066406 234.078125 981.640625 232.179688 981.164062 230.292969 C 980.691406 228.40625 980.171875 226.53125 979.605469 224.667969 C 979.039062 222.804688 978.429688 220.960938 977.773438 219.128906 C 977.117188 217.296875 976.414062 215.480469 975.667969 213.683594 C 974.925781 211.886719 974.136719 210.109375 973.300781 208.347656 C 972.46875 206.589844 971.59375 204.851562 970.675781 203.136719 C 969.757812 201.421875 968.800781 199.730469 967.796875 198.0625 C 966.796875 196.390625 965.757812 194.75 964.675781 193.128906 C 963.59375 191.511719 962.472656 189.921875 961.3125 188.359375 C 960.152344 186.796875 958.957031 185.265625 957.722656 183.757812 C 956.488281 182.253906 955.21875 180.78125 953.910156 179.339844 C 952.601562 177.898438 951.261719 176.488281 949.886719 175.113281 C 948.511719 173.738281 947.101562 172.398438 945.660156 171.089844 C 944.21875 169.78125 942.746094 168.511719 941.242188 167.277344 C 939.738281 166.042969 938.203125 164.847656 936.640625 163.6875 C 935.078125 162.527344 933.488281 161.40625 931.871094 160.324219 C 930.25 159.242188 928.609375 158.203125 926.941406 157.203125 C 925.269531 156.199219 923.578125 155.242188 921.863281 154.324219 C 920.148438 153.40625 918.410156 152.53125 916.652344 151.699219 C 914.890625 150.863281 913.113281 150.074219 911.316406 149.332031 C 909.519531 148.585938 907.703125 147.882812 905.871094 147.226562 C 904.039062 146.570312 902.195312 145.960938 900.332031 145.394531 C 898.46875 144.828125 896.59375 144.308594 894.707031 143.835938 C 892.820312 143.359375 890.921875 142.933594 889.015625 142.550781 C 887.105469 142.171875 885.191406 141.835938 883.265625 141.550781 C 881.339844 141.265625 879.410156 141.023438 877.472656 140.832031 C 875.535156 140.640625 873.597656 140.496094 871.652344 140.398438 C 869.710938 140.300781 867.765625 140.25 865.820312 140.25 Z M 974.613281 550.921875 C 974.613281 610.800781 925.800781 659.613281 865.820312 659.613281 L 574.078125 659.613281 C 572.300781 659.613281 570.523438 659.566406 568.746094 659.472656 C 566.972656 659.382812 565.199219 659.25 563.429688 659.074219 C 561.660156 658.894531 559.898438 658.675781 558.140625 658.410156 C 556.378906 658.148438 554.628906 657.84375 552.886719 657.492188 C 551.144531 657.144531 549.410156 656.75 547.6875 656.316406 C 545.960938 655.882812 544.25 655.40625 542.546875 654.886719 C 540.847656 654.371094 539.160156 653.8125 537.488281 653.210938 C 535.8125 652.609375 534.15625 651.96875 532.515625 651.285156 C 530.871094 650.605469 529.25 649.882812 527.640625 649.121094 C 526.035156 648.359375 524.449219 647.558594 522.878906 646.71875 C 521.3125 645.882812 519.765625 645.003906 518.242188 644.089844 C 516.71875 643.175781 515.21875 642.222656 513.738281 641.234375 C 512.261719 640.246094 510.808594 639.222656 509.382812 638.160156 C 507.953125 637.101562 506.554688 636.007812 505.179688 634.878906 C 503.804688 633.75 502.460938 632.589844 501.140625 631.398438 C 499.824219 630.203125 498.539062 628.976562 497.28125 627.71875 C 496.023438 626.460938 494.796875 625.175781 493.605469 623.859375 C 492.410156 622.539062 491.25 621.195312 490.121094 619.820312 C 488.992188 618.445312 487.898438 617.046875 486.839844 615.617188 C 485.777344 614.191406 484.753906 612.738281 483.765625 611.261719 C 482.777344 609.78125 481.824219 608.28125 480.910156 606.757812 C 479.996094 605.234375 479.121094 603.6875 478.28125 602.121094 C 477.441406 600.550781 476.640625 598.964844 475.878906 597.359375 C 475.117188 595.75 474.394531 594.128906 473.714844 592.484375 C 473.03125 590.84375 472.390625 589.1875 471.789062 587.511719 C 471.1875 585.839844 470.628906 584.152344 470.113281 582.453125 C 469.59375 580.75 469.117188 579.039062 468.683594 577.3125 C 468.25 575.589844 467.855469 573.855469 467.507812 572.113281 C 467.160156 570.371094 466.851562 568.621094 466.589844 566.859375 C 466.324219 565.101562 466.105469 563.339844 465.925781 561.570312 C 465.75 559.800781 465.617188 558.027344 465.527344 556.253906 C 465.433594 554.476562 465.386719 552.699219 465.386719 550.921875 L 465.386719 259.179688 C 465.386719 199.199219 514.199219 150.386719 574.078125 150.386719 L 865.820312 150.386719 C 867.597656 150.386719 869.378906 150.433594 871.15625 150.519531 C 872.933594 150.609375 874.707031 150.742188 876.480469 150.917969 C 878.25 151.09375 880.015625 151.3125 881.777344 151.574219 C 883.539062 151.839844 885.292969 152.144531 887.039062 152.492188 C 888.78125 152.839844 890.519531 153.230469 892.246094 153.664062 C 893.972656 154.097656 895.6875 154.574219 897.390625 155.09375 C 899.09375 155.609375 900.78125 156.167969 902.457031 156.769531 C 904.132812 157.371094 905.792969 158.011719 907.4375 158.695312 C 909.082031 159.375 910.707031 160.097656 912.316406 160.859375 C 913.925781 161.621094 915.515625 162.421875 917.085938 163.261719 C 918.65625 164.101562 920.203125 164.980469 921.730469 165.894531 C 923.253906 166.808594 924.757812 167.761719 926.238281 168.753906 C 927.71875 169.742188 929.171875 170.765625 930.601562 171.828125 C 932.03125 172.886719 933.433594 173.984375 934.8125 175.113281 C 936.1875 176.242188 937.535156 177.402344 938.851562 178.597656 C 940.171875 179.796875 941.460938 181.023438 942.71875 182.28125 C 943.976562 183.539062 945.203125 184.828125 946.402344 186.148438 C 947.597656 187.464844 948.757812 188.8125 949.886719 190.1875 C 951.015625 191.566406 952.113281 192.96875 953.171875 194.398438 C 954.234375 195.828125 955.257812 197.28125 956.246094 198.761719 C 957.238281 200.242188 958.191406 201.746094 959.105469 203.269531 C 960.019531 204.796875 960.898438 206.34375 961.738281 207.914062 C 962.578125 209.484375 963.378906 211.074219 964.140625 212.683594 C 964.902344 214.292969 965.625 215.917969 966.304688 217.5625 C 966.988281 219.207031 967.628906 220.867188 968.230469 222.542969 C 968.832031 224.21875 969.390625 225.90625 969.90625 227.609375 C 970.425781 229.3125 970.902344 231.027344 971.335938 232.753906 C 971.769531 234.480469 972.160156 236.21875 972.507812 237.960938 C 972.855469 239.707031 973.160156 241.460938 973.425781 243.222656 C 973.6875 244.984375 973.90625 246.75 974.082031 248.519531 C 974.257812 250.292969 974.390625 252.066406 974.480469 253.84375 C 974.566406 255.621094 974.613281 257.402344 974.613281 259.179688 Z M 868.40625 188.132812 L 571.492188 188.132812 C 570.371094 188.132812 569.253906 188.164062 568.132812 188.21875 C 567.015625 188.277344 565.898438 188.359375 564.785156 188.472656 C 563.671875 188.582031 562.558594 188.722656 561.453125 188.886719 C 560.34375 189.050781 559.242188 189.246094 558.140625 189.464844 C 557.042969 189.683594 555.953125 189.929688 554.867188 190.203125 C 553.78125 190.476562 552.699219 190.777344 551.628906 191.105469 C 550.558594 191.429688 549.496094 191.78125 548.441406 192.160156 C 547.386719 192.539062 546.34375 192.941406 545.308594 193.371094 C 544.273438 193.800781 543.25 194.253906 542.238281 194.734375 C 541.226562 195.214844 540.226562 195.71875 539.238281 196.246094 C 538.25 196.777344 537.277344 197.328125 536.316406 197.902344 C 535.355469 198.480469 534.410156 199.078125 533.480469 199.703125 C 532.550781 200.324219 531.632812 200.96875 530.734375 201.636719 C 529.835938 202.304688 528.953125 202.992188 528.085938 203.703125 C 527.222656 204.414062 526.375 205.148438 525.542969 205.898438 C 524.714844 206.652344 523.902344 207.421875 523.113281 208.214844 C 522.320312 209.007812 521.546875 209.816406 520.796875 210.648438 C 520.042969 211.476562 519.3125 212.324219 518.601562 213.191406 C 517.890625 214.054688 517.203125 214.9375 516.535156 215.839844 C 515.867188 216.738281 515.222656 217.652344 514.597656 218.582031 C 513.976562 219.515625 513.375 220.460938 512.800781 221.421875 C 512.222656 222.382812 511.671875 223.355469 511.144531 224.34375 C 510.613281 225.328125 510.109375 226.328125 509.632812 227.34375 C 509.152344 228.355469 508.699219 229.378906 508.269531 230.410156 C 507.839844 231.445312 507.433594 232.492188 507.058594 233.542969 C 506.679688 234.597656 506.328125 235.660156 506 236.734375 C 505.675781 237.804688 505.375 238.882812 505.101562 239.96875 C 504.828125 241.054688 504.582031 242.148438 504.363281 243.246094 C 504.140625 244.34375 503.949219 245.445312 503.785156 246.554688 C 503.617188 247.664062 503.480469 248.773438 503.367188 249.886719 C 503.257812 251.003906 503.171875 252.117188 503.117188 253.238281 C 503.058594 254.355469 503.03125 255.476562 503.027344 256.59375 L 503.027344 553.507812 C 503.03125 554.628906 503.058594 555.746094 503.117188 556.867188 C 503.171875 557.984375 503.257812 559.101562 503.367188 560.214844 C 503.480469 561.328125 503.617188 562.441406 503.785156 563.546875 C 503.949219 564.65625 504.140625 565.757812 504.363281 566.859375 C 504.582031 567.957031 504.828125 569.046875 505.101562 570.132812 C 505.375 571.21875 505.675781 572.300781 506 573.371094 C 506.328125 574.441406 506.679688 575.503906 507.058594 576.558594 C 507.433594 577.613281 507.839844 578.65625 508.269531 579.691406 C 508.699219 580.726562 509.152344 581.75 509.632812 582.761719 C 510.109375 583.773438 510.613281 584.773438 511.144531 585.761719 C 511.671875 586.75 512.222656 587.722656 512.800781 588.683594 C 513.375 589.644531 513.976562 590.589844 514.597656 591.519531 C 515.222656 592.449219 515.867188 593.367188 516.535156 594.265625 C 517.203125 595.164062 517.890625 596.046875 518.601562 596.914062 C 519.3125 597.777344 520.042969 598.625 520.796875 599.457031 C 521.546875 600.285156 522.320312 601.097656 523.113281 601.886719 C 523.902344 602.679688 524.714844 603.453125 525.542969 604.203125 C 526.375 604.957031 527.222656 605.6875 528.085938 606.398438 C 528.953125 607.109375 529.835938 607.796875 530.734375 608.464844 C 531.632812 609.132812 532.550781 609.777344 533.480469 610.402344 C 534.410156 611.023438 535.355469 611.625 536.316406 612.199219 C 537.277344 612.777344 538.25 613.328125 539.238281 613.855469 C 540.226562 614.386719 541.226562 614.890625 542.238281 615.367188 C 543.25 615.847656 544.273438 616.300781 545.308594 616.730469 C 546.34375 617.160156 547.386719 617.566406 548.441406 617.941406 C 549.496094 618.320312 550.558594 618.671875 551.628906 619 C 552.699219 619.324219 553.78125 619.625 554.867188 619.898438 C 555.953125 620.171875 557.042969 620.417969 558.140625 620.636719 C 559.242188 620.859375 560.34375 621.050781 561.453125 621.214844 C 562.558594 621.382812 563.671875 621.519531 564.785156 621.632812 C 565.898438 621.742188 567.015625 621.828125 568.132812 621.882812 C 569.253906 621.941406 570.371094 621.96875 571.492188 621.972656 L 868.40625 621.972656 C 869.523438 621.96875 870.644531 621.941406 871.761719 621.882812 C 872.882812 621.828125 873.996094 621.742188 875.113281 621.632812 C 876.226562 621.519531 877.335938 621.382812 878.445312 621.214844 C 879.554688 621.050781 880.65625 620.859375 881.753906 620.636719 C 882.851562 620.417969 883.945312 620.171875 885.03125 619.898438 C 886.117188 619.625 887.195312 619.324219 888.265625 619 C 889.339844 618.671875 890.402344 618.320312 891.457031 617.941406 C 892.507812 617.566406 893.554688 617.160156 894.589844 616.730469 C 895.621094 616.300781 896.644531 615.847656 897.65625 615.367188 C 898.671875 614.890625 899.671875 614.386719 900.65625 613.855469 C 901.644531 613.328125 902.617188 612.777344 903.578125 612.199219 C 904.539062 611.625 905.484375 611.023438 906.417969 610.402344 C 907.347656 609.777344 908.261719 609.132812 909.160156 608.464844 C 910.0625 607.796875 910.945312 607.109375 911.808594 606.398438 C 912.675781 605.6875 913.523438 604.957031 914.351562 604.203125 C 915.183594 603.453125 915.992188 602.679688 916.785156 601.886719 C 917.578125 601.097656 918.347656 600.285156 919.101562 599.457031 C 919.855469 598.625 920.585938 597.777344 921.296875 596.914062 C 922.007812 596.046875 922.695312 595.164062 923.363281 594.265625 C 924.03125 593.367188 924.675781 592.449219 925.296875 591.519531 C 925.921875 590.589844 926.519531 589.644531 927.097656 588.683594 C 927.671875 587.722656 928.222656 586.75 928.753906 585.761719 C 929.28125 584.773438 929.785156 583.773438 930.265625 582.761719 C 930.746094 581.75 931.199219 580.726562 931.628906 579.691406 C 932.058594 578.65625 932.460938 577.613281 932.839844 576.558594 C 933.21875 575.503906 933.570312 574.441406 933.894531 573.371094 C 934.222656 572.300781 934.523438 571.21875 934.796875 570.132812 C 935.070312 569.046875 935.316406 567.957031 935.535156 566.859375 C 935.753906 565.757812 935.949219 564.65625 936.113281 563.546875 C 936.277344 562.441406 936.417969 561.328125 936.527344 560.214844 C 936.640625 559.101562 936.722656 557.984375 936.78125 556.867188 C 936.835938 555.746094 936.867188 554.628906 936.867188 553.507812 L 936.867188 256.59375 C 936.867188 255.476562 936.835938 254.355469 936.78125 253.238281 C 936.722656 252.117188 936.640625 251.003906 936.527344 249.886719 C 936.417969 248.773438 936.277344 247.664062 936.113281 246.554688 C 935.949219 245.445312 935.753906 244.34375 935.535156 243.246094 C 935.316406 242.148438 935.070312 241.054688 934.796875 239.96875 C 934.523438 238.882812 934.222656 237.804688 933.894531 236.734375 C 933.570312 235.660156 933.21875 234.597656 932.839844 233.542969 C 932.460938 232.492188 932.058594 231.445312 931.628906 230.410156 C 931.199219 229.378906 930.746094 228.355469 930.265625 227.34375 C 929.785156 226.328125 929.28125 225.328125 928.753906 224.34375 C 928.222656 223.355469 927.671875 222.382812 927.097656 221.421875 C 926.519531 220.460938 925.921875 219.515625 925.296875 218.582031 C 924.675781 217.652344 924.03125 216.738281 923.363281 215.839844 C 922.695312 214.9375 922.007812 214.054688 921.296875 213.191406 C 920.585938 212.324219 919.851562 211.476562 919.101562 210.648438 C 918.347656 209.816406 917.578125 209.007812 916.785156 208.214844 C 915.992188 207.421875 915.183594 206.652344 914.351562 205.898438 C 913.523438 205.148438 912.675781 204.414062 911.808594 203.703125 C 910.945312 202.992188 910.0625 202.304688 909.160156 201.636719 C 908.261719 200.96875 907.347656 200.324219 906.417969 199.703125 C 905.484375 199.078125 904.539062 198.480469 903.578125 197.902344 C 902.617188 197.328125 901.644531 196.777344 900.65625 196.246094 C 899.671875 195.71875 898.671875 195.214844 897.65625 194.734375 C 896.644531 194.253906 895.621094 193.800781 894.589844 193.371094 C 893.554688 192.941406 892.507812 192.539062 891.457031 192.160156 C 890.402344 191.78125 889.339844 191.429688 888.265625 191.105469 C 887.195312 190.777344 886.117188 190.476562 885.03125 190.203125 C 883.945312 189.929688 882.851562 189.683594 881.753906 189.464844 C 880.65625 189.246094 879.554688 189.050781 878.445312 188.886719 C 877.335938 188.722656 876.226562 188.582031 875.113281 188.472656 C 873.996094 188.359375 872.882812 188.277344 871.761719 188.21875 C 870.644531 188.164062 869.523438 188.132812 868.40625 188.132812 Z M 926.734375 553.507812 C 926.730469 555.417969 926.632812 557.320312 926.441406 559.222656 C 926.253906 561.121094 925.96875 563.007812 925.59375 564.878906 C 925.21875 566.753906 924.753906 568.601562 924.199219 570.429688 C 923.640625 572.253906 922.996094 574.050781 922.265625 575.8125 C 921.53125 577.578125 920.714844 579.300781 919.816406 580.984375 C 918.914062 582.667969 917.933594 584.300781 916.871094 585.890625 C 915.808594 587.476562 914.671875 589.007812 913.460938 590.484375 C 912.25 591.957031 910.96875 593.371094 909.617188 594.722656 C 908.269531 596.070312 906.855469 597.351562 905.378906 598.566406 C 903.902344 599.777344 902.371094 600.914062 900.785156 601.972656 C 899.199219 603.035156 897.5625 604.015625 895.878906 604.917969 C 894.195312 605.820312 892.472656 606.636719 890.710938 607.367188 C 888.945312 608.101562 887.152344 608.746094 885.324219 609.300781 C 883.5 609.859375 881.648438 610.324219 879.777344 610.699219 C 877.90625 611.074219 876.019531 611.355469 874.117188 611.546875 C 872.21875 611.734375 870.3125 611.832031 868.40625 611.835938 L 571.492188 611.835938 C 569.582031 611.832031 567.679688 611.734375 565.777344 611.546875 C 563.878906 611.355469 561.992188 611.074219 560.121094 610.699219 C 558.246094 610.324219 556.398438 609.859375 554.570312 609.300781 C 552.746094 608.746094 550.949219 608.101562 549.1875 607.367188 C 547.421875 606.636719 545.699219 605.820312 544.015625 604.917969 C 542.332031 604.015625 540.699219 603.035156 539.109375 601.972656 C 537.523438 600.914062 535.992188 599.777344 534.515625 598.566406 C 533.042969 597.351562 531.628906 596.070312 530.277344 594.722656 C 528.929688 593.371094 527.648438 591.957031 526.433594 590.484375 C 525.222656 589.007812 524.085938 587.476562 523.027344 585.890625 C 521.964844 584.300781 520.984375 582.667969 520.082031 580.984375 C 519.179688 579.300781 518.363281 577.578125 517.632812 575.8125 C 516.898438 574.050781 516.253906 572.253906 515.699219 570.429688 C 515.140625 568.601562 514.675781 566.753906 514.300781 564.878906 C 513.925781 563.007812 513.644531 561.121094 513.453125 559.222656 C 513.265625 557.320312 513.167969 555.417969 513.164062 553.507812 L 513.164062 256.59375 C 513.167969 254.6875 513.265625 252.78125 513.453125 250.882812 C 513.644531 248.980469 513.925781 247.09375 514.300781 245.222656 C 514.675781 243.351562 515.140625 241.5 515.699219 239.675781 C 516.253906 237.847656 516.898438 236.054688 517.632812 234.289062 C 518.363281 232.527344 519.179688 230.804688 520.082031 229.121094 C 520.984375 227.4375 521.964844 225.800781 523.027344 224.214844 C 524.085938 222.628906 525.222656 221.097656 526.433594 219.621094 C 527.648438 218.144531 528.929688 216.730469 530.277344 215.382812 C 531.628906 214.03125 533.042969 212.75 534.515625 211.539062 C 535.992188 210.328125 537.523438 209.191406 539.109375 208.128906 C 540.699219 207.066406 542.332031 206.085938 544.015625 205.183594 C 545.699219 204.285156 547.421875 203.46875 549.1875 202.734375 C 550.949219 202.003906 552.746094 201.359375 554.570312 200.800781 C 556.398438 200.246094 558.246094 199.78125 560.121094 199.40625 C 561.992188 199.03125 563.878906 198.746094 565.777344 198.558594 C 567.679688 198.367188 569.582031 198.269531 571.492188 198.265625 L 868.40625 198.265625 C 870.3125 198.269531 872.21875 198.367188 874.117188 198.558594 C 876.019531 198.746094 877.90625 199.03125 879.777344 199.40625 C 881.648438 199.78125 883.5 200.246094 885.324219 200.800781 C 887.152344 201.359375 888.945312 202.003906 890.710938 202.734375 C 892.472656 203.46875 894.195312 204.285156 895.878906 205.183594 C 897.5625 206.085938 899.199219 207.066406 900.785156 208.128906 C 902.371094 209.191406 903.902344 210.328125 905.378906 211.539062 C 906.855469 212.75 908.269531 214.03125 909.617188 215.382812 C 910.96875 216.730469 912.25 218.144531 913.460938 219.621094 C 914.671875 221.097656 915.808594 222.628906 916.871094 224.214844 C 917.933594 225.800781 918.914062 227.4375 919.816406 229.121094 C 920.714844 230.804688 921.53125 232.527344 922.265625 234.289062 C 922.996094 236.054688 923.640625 237.847656 924.199219 239.675781 C 924.753906 241.5 925.21875 243.351562 925.59375 245.222656 C 925.96875 247.09375 926.253906 248.980469 926.441406 250.882812 C 926.632812 252.78125 926.730469 254.6875 926.734375 256.59375 Z M 926.734375 553.507812 " fill-opacity="1" fill-rule="nonzero"/></g><path fill="#737373" d="M 891.847656 446.78125 L 760.003906 523.050781 L 760.003906 501.140625 L 891.847656 424.941406 Z M 879.214844 382.246094 L 757.886719 452.4375 L 757.886719 479.15625 L 879.214844 408.964844 Z M 879.214844 382.246094 " fill-opacity="1" fill-rule="nonzero"/><path fill="#1f1f38" d="M 888.742188 438.867188 L 892.695312 434.269531 L 892.695312 434.835938 L 889.027344 439.148438 Z M 888.8125 439.289062 L 888.53125 439.078125 L 888.742188 438.796875 L 886.484375 437.027344 L 886.273438 437.3125 L 892.695312 442.328125 L 892.695312 441.90625 L 889.027344 439.078125 Z M 888.8125 439.289062 L 889.027344 439.007812 L 888.742188 438.796875 L 888.53125 439.078125 Z M 807.71875 494.285156 L 809.976562 494.355469 L 810.539062 494 L 807.71875 493.859375 Z M 809.199219 491.03125 L 815.410156 491.242188 L 815.976562 490.890625 L 809.199219 490.609375 Z M 812.660156 487.425781 L 821.410156 487.710938 L 821.976562 487.355469 L 812.65625 487.003906 Z M 798.824219 486.789062 L 800.234375 488.699219 L 799.953125 488.910156 L 804.542969 495.273438 L 804.824219 495.0625 Z M 799.742188 493.859375 L 798.472656 490.75 L 801.859375 499.089844 L 802.140625 498.878906 L 800.023438 493.71875 Z M 761.417969 508.492188 L 760.851562 508.207031 L 760.851562 508.632812 L 761.277344 508.84375 Z M 770.097656 507.570312 L 773.34375 515.558594 L 773.628906 515.347656 L 770.453125 507.359375 Z M 784.355469 503.96875 L 790.425781 505.734375 L 790.847656 505.523438 L 784.496094 503.683594 Z M 781.886719 504.53125 L 786.96875 507.714844 L 787.320312 507.5 L 782.097656 504.25 Z M 778.921875 505.378906 L 784.214844 509.269531 L 784.566406 509.054688 L 779.132812 505.097656 Z M 775.675781 506.300781 L 781.25 511.035156 L 781.601562 510.824219 L 775.957031 506.015625 Z M 775.460938 508.492188 L 778.636719 512.519531 L 778.921875 512.308594 L 775.746094 508.277344 Z M 772.78125 508.773438 L 776.027344 514.003906 L 776.308594 513.792969 L 773.0625 508.5625 Z M 770.875 512.660156 L 760.851562 510.46875 L 760.851562 510.824219 L 770.804688 513.015625 Z M 760.851562 515.136719 L 770.308594 517.328125 L 770.734375 517.042969 L 760.851562 514.78125 Z M 760.851562 519.730469 L 764.664062 520.578125 L 765.085938 520.296875 L 760.851562 519.304688 Z M 873.144531 388.960938 L 880.0625 384.578125 L 880.0625 384.15625 L 872.933594 388.609375 Z M 878.792969 392.496094 L 880.0625 391.648438 L 880.0625 391.222656 L 878.578125 392.214844 Z M 810.539062 489.335938 L 810.824219 489.050781 L 807.433594 485.660156 L 807.152344 485.941406 Z M 800.023438 483.75 L 807.292969 492.515625 L 807.578125 492.304688 L 801.71875 485.304688 L 801.4375 485.519531 Z M 885.707031 433.777344 L 892.625 426.847656 L 892.625 426.355469 L 885.425781 433.5625 Z M 884.085938 445.15625 L 884.226562 445.296875 Z M 885.566406 446.710938 L 884.085938 445.582031 L 888.53125 448.972656 L 888.882812 448.761719 L 885.851562 446.429688 Z M 885.636719 450.527344 L 883.730469 449.398438 L 885.707031 450.597656 L 886.0625 450.386719 L 885.851562 450.246094 Z M 884.085938 439.644531 L 885.921875 441.269531 L 885.707031 441.550781 L 891.847656 446.996094 L 892.203125 446.78125 Z M 841.171875 420.488281 L 846.820312 423.171875 L 846.960938 422.820312 L 841.3125 420.132812 Z M 844.914062 419.285156 L 841.03125 416.601562 L 840.820312 416.882812 L 844.703125 419.570312 Z M 809.480469 448.410156 L 809.480469 448.761719 L 810.824219 448.761719 L 811.457031 448.410156 Z M 803.484375 439.078125 L 824.867188 413.914062 L 823.949219 414.480469 L 803.199219 438.867188 Z M 825.714844 417.023438 L 825.363281 417.023438 L 825.222656 440.421875 L 825.574219 440.207031 Z M 836.796875 409.460938 L 832.914062 409.320312 L 832.351562 409.671875 L 836.796875 409.882812 Z M 851.546875 449.042969 L 851.6875 448.761719 L 851.265625 448.550781 L 850.914062 448.761719 Z M 802.988281 439.078125 L 803.199219 438.796875 L 800.941406 437.027344 L 800.730469 437.3125 L 809.550781 444.238281 L 809.765625 443.953125 L 803.484375 439.007812 L 803.269531 439.289062 Z M 802.988281 439.078125 L 803.269531 439.289062 L 803.484375 439.007812 L 803.199219 438.796875 Z M 833.902344 413.488281 L 833.550781 413.488281 L 833.410156 435.683594 L 833.761719 435.472656 Z M 837.433594 413.488281 L 837.078125 413.488281 L 837.007812 433.636719 L 837.359375 433.421875 Z M 828.890625 413.066406 L 828.539062 413.066406 L 828.960938 438.230469 L 829.316406 438.015625 Z M 822.117188 420.628906 L 821.761719 420.628906 L 821.621094 442.542969 L 821.976562 442.328125 Z M 817.386719 427.203125 L 817.035156 427.203125 L 815.765625 443.8125 L 816.117188 443.8125 Z M 812.941406 430.738281 L 812.585938 430.738281 L 811.457031 444.027344 L 811.8125 444.027344 Z M 807.859375 440.492188 L 808.210938 440.5625 L 809.128906 435.824219 L 808.777344 435.753906 Z M 838.136719 456.464844 L 838.136719 456.113281 L 837.503906 456.464844 Z M 861.074219 442.46875 L 859.59375 443.742188 L 861.289062 442.753906 Z M 849.925781 452.011719 L 850.136719 452.296875 L 861.289062 442.753906 L 859.59375 443.742188 Z M 859.3125 465.089844 L 859.523438 464.808594 L 843.148438 453.214844 L 842.796875 453.425781 Z M 860.652344 446.144531 L 852.746094 453.496094 L 852.960938 453.78125 L 860.933594 446.429688 Z M 852.113281 456.183594 L 852.324219 455.902344 L 846.679688 451.234375 L 846.324219 451.449219 Z M 830.445312 460.566406 L 830.726562 460.425781 L 830.65625 460.355469 Z M 830.445312 460.566406 L 843.925781 474.703125 L 844.207031 474.492188 L 830.726562 460.355469 Z M 835.527344 460.285156 L 847.878906 472.441406 L 848.230469 472.230469 L 835.808594 460 Z M 839.335938 459.082031 L 849.148438 469.191406 L 849.429688 468.90625 L 839.621094 458.871094 Z M 851.265625 465.65625 L 851.476562 465.371094 L 840.042969 455.050781 L 839.691406 455.265625 Z M 855.640625 421.902344 L 855.921875 422.679688 L 856.207031 422.464844 L 855.921875 421.757812 Z M 870.535156 442.257812 L 868.347656 438.722656 L 868.0625 438.9375 L 870.25 442.46875 Z M 802.28125 477.320312 L 802.496094 477.601562 L 808.988281 473.007812 L 805.460938 475.058594 Z M 818.871094 469.542969 L 804.328125 479.933594 L 804.542969 480.214844 L 819.082031 469.824219 Z M 820.988281 471.945312 L 806.730469 482.691406 L 806.941406 482.972656 L 821.199219 472.230469 Z M 865.167969 445.933594 L 865.523438 445.792969 L 863.828125 441.269531 L 863.546875 441.480469 Z M 853.453125 456.609375 L 853.734375 456.890625 L 864.324219 446.144531 L 864.039062 445.863281 Z M 813.929688 481.488281 L 825.503906 482.054688 L 825.503906 481.699219 L 813.929688 481.136719 Z M 864.535156 455.546875 L 864.324219 455.265625 L 857.476562 461.839844 L 857.6875 462.121094 Z M 868.488281 459.648438 L 867.78125 460.917969 L 868.347656 460.566406 L 868.769531 459.789062 Z M 866.371094 456.535156 L 861.992188 464.3125 L 862.628906 463.960938 L 866.722656 456.679688 Z M 841.597656 423.738281 L 841.527344 424.09375 L 850.207031 426 L 850.628906 425.71875 Z M 842.511719 428.191406 L 842.441406 428.546875 L 844.84375 429.109375 L 845.265625 428.828125 Z M 815.691406 479.367188 L 824.023438 479.652344 L 824.023438 479.296875 L 815.691406 479.015625 Z M 817.8125 477.320312 L 822.117188 477.53125 L 822.117188 477.175781 L 817.8125 476.964844 Z M 858.746094 421.125 L 858.886719 420.980469 Z M 858.886719 420.910156 L 858.957031 420.839844 L 842.160156 403.875 L 841.808594 404.089844 L 858.605469 421.054688 Z M 852.394531 408.894531 L 845.546875 401.96875 L 845.195312 402.179688 L 852.042969 409.175781 Z M 853.242188 397.726562 L 854.371094 413.207031 L 854.722656 413.207031 L 853.804688 400.199219 L 853.453125 400.199219 Z M 877.734375 399.707031 L 877.167969 397.726562 L 880.0625 407.621094 L 880.0625 406.351562 L 878.085938 399.5625 Z M 857.125 397.726562 L 858.886719 417.660156 L 859.242188 417.660156 L 857.6875 400.128906 L 857.335938 400.128906 Z M 865.167969 417.378906 L 865.523438 417.304688 L 865.523438 417.164062 Z M 863.050781 397.726562 L 863.335938 399.847656 L 862.980469 399.917969 L 865.167969 417.378906 L 865.523438 417.164062 Z M 867.359375 397.726562 L 867.640625 399.777344 L 867.289062 399.847656 L 869.476562 414.761719 L 869.828125 414.550781 Z M 873.355469 397.726562 L 873.851562 399.707031 L 873.5 399.777344 L 876.109375 410.945312 L 876.460938 410.734375 Z M 849.925781 399.492188 L 849.710938 399.777344 L 851.546875 401.542969 L 851.757812 401.261719 Z M 850.277344 423.101562 L 837.21875 406.773438 L 836.9375 406.988281 L 849.996094 423.316406 Z M 819.363281 467 L 833.195312 480.921875 L 833.480469 480.710938 L 819.714844 466.785156 Z M 822.820312 465.019531 L 836.585938 479.015625 L 836.9375 478.804688 L 823.175781 464.808594 Z M 855.640625 466.433594 L 855.78125 467.847656 L 856.136719 467.632812 L 855.996094 466.363281 Z M 826.210938 463.039062 L 840.539062 476.683594 L 840.890625 476.46875 L 826.5625 462.828125 Z M 823.878906 475.835938 L 823.597656 476.046875 L 829.316406 483.1875 L 829.597656 482.972656 Z M 871.378906 439.5 L 875.96875 434.269531 L 874.980469 434.835938 L 871.097656 439.21875 Z M 881.613281 437.453125 L 881.828125 437.664062 L 884.015625 435.472656 L 883.730469 435.191406 L 872.582031 446.359375 L 872.863281 446.640625 L 881.613281 437.875 L 881.402344 437.664062 Z M 885.707031 433.777344 L 885.425781 433.492188 L 883.730469 435.191406 L 884.015625 435.472656 Z M 854.792969 458.515625 L 883.519531 429.886719 L 882.320312 430.59375 L 854.511719 458.234375 Z M 867.992188 457.386719 L 872.652344 458.164062 L 873.144531 457.878906 L 868.0625 457.03125 Z M 867.921875 449.964844 L 879.921875 453.921875 L 880.34375 453.710938 L 868.0625 449.609375 Z M 865.875 453.496094 L 876.53125 455.832031 L 876.957031 455.546875 L 865.945312 453.074219 Z M 884.085938 445.15625 L 880.554688 442.46875 L 880.34375 442.753906 L 884.015625 445.582031 L 883.875 445.4375 Z M 885.777344 446.429688 L 884.296875 445.296875 Z M 885.777344 446.429688 L 884.296875 445.296875 L 884.15625 445.15625 L 883.945312 445.4375 L 884.085938 445.582031 L 885.566406 446.710938 Z M 885.851562 450.175781 L 877.027344 444.804688 L 876.816406 445.085938 L 883.804688 449.328125 L 884.015625 449.042969 Z M 885.851562 450.175781 L 883.945312 449.042969 L 883.730469 449.328125 L 885.636719 450.457031 Z M 884.085938 439.644531 L 881.828125 437.664062 L 881.542969 437.945312 L 885.707031 441.621094 L 883.875 439.996094 Z M 884.085938 439.644531 L 883.875 439.925781 L 885.707031 441.550781 L 885.921875 441.269531 Z M 881.613281 437.453125 L 881.402344 437.734375 L 881.613281 437.945312 L 881.898438 437.664062 Z M 874.414062 447.84375 L 882.320312 452.507812 L 882.671875 452.296875 L 874.628906 447.558594 Z M 853.59375 397.726562 L 853.734375 400.199219 L 853.523438 397.375 L 853.171875 397.585938 L 853.171875 397.796875 Z M 853.242188 397.726562 L 853.382812 400.199219 L 853.734375 400.199219 L 853.59375 397.726562 Z M 878.085938 399.636719 L 876.179688 393.203125 L 875.828125 393.273438 L 877.097656 397.726562 L 877.449219 397.65625 Z M 878.085938 399.636719 L 877.519531 397.65625 L 877.167969 397.726562 L 877.734375 399.707031 Z M 857.476562 397.65625 L 857.6875 400.058594 L 857.265625 395.183594 L 856.910156 395.394531 L 857.125 397.726562 Z M 857.125 397.726562 L 857.335938 400.128906 L 857.6875 400.128906 L 857.476562 397.726562 Z M 862.910156 399.917969 L 862.628906 397.796875 L 862.980469 397.726562 L 862.277344 392.214844 L 861.921875 392.425781 Z M 863.050781 397.726562 L 862.699219 397.796875 L 862.980469 399.917969 L 863.335938 399.847656 Z M 867.289062 399.917969 L 867.003906 397.867188 L 867.359375 397.796875 L 866.226562 390.023438 L 865.875 390.234375 Z M 867.359375 397.726562 L 867.003906 397.796875 L 867.289062 399.847656 L 867.640625 399.777344 Z M 873.5 399.847656 L 873.003906 397.867188 L 873.355469 397.796875 L 870.886719 387.335938 L 870.535156 387.546875 Z M 873.355469 397.726562 L 873.003906 397.796875 L 873.5 399.777344 L 873.851562 399.707031 Z M 849.710938 399.777344 L 849.570312 399.636719 Z M 849.855469 399.492188 L 849.5 399.707031 L 849.640625 399.847656 Z M 773.414062 506.511719 L 765.226562 498.242188 L 764.875 498.453125 L 773.132812 506.792969 Z M 769.179688 498.808594 L 768.96875 496.121094 L 768.617188 496.332031 L 768.828125 498.878906 Z M 792.191406 485.375 L 791.625 483.398438 L 797.058594 501.847656 L 797.34375 501.632812 L 792.542969 485.234375 Z M 773.34375 503.332031 L 773.699219 503.332031 L 772.851562 493.929688 L 772.5 494.140625 Z M 779.625 503.046875 L 779.980469 502.976562 L 778.425781 490.679688 L 778.074219 490.890625 Z M 784.144531 501.847656 L 784.496094 501.777344 L 782.519531 488.273438 L 782.167969 488.488281 Z M 788.308594 485.449219 L 787.957031 485.519531 L 792.191406 503.472656 L 792.542969 503.402344 L 788.238281 485.09375 Z M 764.664062 508.773438 L 760.851562 503.96875 L 760.851562 504.53125 L 764.382812 508.984375 Z M 798.824219 486.789062 L 796.285156 483.257812 L 796 483.46875 L 799.953125 488.980469 L 798.542969 487.074219 Z M 798.824219 486.789062 L 798.542969 487.003906 L 799.953125 488.910156 L 800.234375 488.699219 Z M 800.09375 493.71875 L 795.71875 482.902344 L 796.777344 485.449219 L 796.425781 485.589844 L 798.542969 490.75 L 798.894531 490.609375 Z M 800.09375 493.71875 L 798.824219 490.609375 L 798.472656 490.75 L 799.742188 493.859375 Z M 800.164062 433.777344 L 813.292969 420.628906 L 812.09375 421.335938 L 799.882812 433.5625 Z M 798.683594 429.183594 L 799.035156 428.828125 Z M 797.976562 455.125 L 799.105469 455.476562 Z M 798.472656 445.582031 L 804.894531 450.527344 L 805.105469 450.246094 L 800.164062 446.5 L 799.953125 446.78125 Z M 798.542969 445.15625 L 798.683594 445.296875 Z M 804.257812 452.578125 L 803.90625 452.789062 L 804.117188 452.933594 Z M 800.308594 450.175781 L 800.09375 450.457031 L 798.1875 449.328125 L 803.835938 452.71875 L 804.1875 452.507812 Z M 800.164062 441.550781 L 807.292969 447.84375 L 807.507812 447.558594 L 798.542969 439.644531 L 800.378906 441.269531 Z M 798.1875 452.933594 L 800.09375 454.0625 L 799.882812 454.347656 L 800.449219 454.699219 L 800.800781 454.488281 Z M 804.1875 482.902344 L 804.472656 482.621094 L 800.023438 478.167969 L 799.671875 478.378906 Z M 807.152344 485.871094 L 807.433594 485.589844 L 804.472656 482.621094 L 804.1875 482.902344 Z M 800.308594 483.46875 L 801.789062 485.234375 L 797.273438 479.792969 Z M 800.023438 483.75 L 801.507812 485.519531 L 801.789062 485.304688 L 800.308594 483.539062 Z M 766.214844 448.691406 L 765.441406 448.265625 L 765.085938 448.480469 L 766.074219 448.972656 Z M 775.53125 442.46875 L 764.382812 452.011719 L 764.59375 452.296875 L 775.746094 442.753906 Z M 773.910156 464.808594 L 758.734375 454.0625 L 758.734375 454.488281 L 773.699219 465.089844 Z M 775.109375 446.144531 L 767.132812 453.496094 L 767.347656 453.78125 L 775.320312 446.429688 Z M 766.851562 455.902344 L 760.851562 450.953125 L 760.5 451.164062 L 766.570312 456.183594 Z M 758.734375 475.058594 L 761.0625 477.460938 L 761.347656 477.246094 L 758.734375 474.492188 Z M 758.734375 468.976562 L 765.085938 475.199219 L 765.441406 474.984375 L 758.734375 468.414062 Z M 763.886719 468.976562 L 758.734375 463.675781 L 758.734375 464.171875 L 763.605469 469.191406 Z M 765.933594 465.371094 L 758.734375 458.871094 L 758.734375 459.363281 L 765.722656 465.65625 Z M 784.992188 442.257812 L 782.589844 438.371094 L 782.308594 438.582031 L 784.707031 442.46875 Z M 779.980469 445.863281 L 778.144531 440.984375 L 777.863281 441.199219 L 779.699219 446.003906 Z M 778.566406 445.933594 L 767.980469 456.679688 L 768.261719 456.960938 L 778.851562 446.21875 Z M 778.78125 455.265625 L 771.933594 461.839844 L 772.144531 462.121094 L 778.992188 455.546875 Z M 779.910156 465.9375 L 783.226562 459.859375 L 782.945312 459.71875 L 779.625 465.796875 Z M 776.097656 465.65625 L 781.179688 456.75 L 780.898438 456.609375 L 775.816406 465.515625 Z M 768.617188 446.429688 L 768.261719 446.640625 L 768.476562 446.710938 Z M 767.203125 470.886719 L 766.851562 470.886719 L 767.0625 474.066406 L 767.417969 473.855469 Z M 791.625 483.398438 L 791.976562 483.328125 L 792.542969 485.304688 L 791.835938 482.972656 L 791.554688 483.1875 Z M 791.625 483.398438 L 792.191406 485.375 L 792.542969 485.304688 L 791.976562 483.328125 Z M 770.453125 466.433594 L 770.097656 466.433594 L 770.59375 472.015625 L 770.945312 471.804688 Z M 775.53125 467.917969 L 775.179688 467.988281 L 775.320312 469.332031 L 775.675781 469.117188 Z M 787.882812 485.234375 L 787.957031 485.519531 Z M 788.167969 485.023438 L 787.8125 485.234375 L 787.882812 485.519531 L 788.238281 485.449219 Z M 785.835938 439.5 L 791.203125 433.421875 L 790.214844 433.988281 L 785.554688 439.289062 Z M 787.109375 446.359375 L 787.390625 446.640625 L 796.140625 437.875 L 795.929688 437.664062 L 796.140625 437.382812 L 796.355469 437.59375 L 798.542969 435.402344 L 798.261719 435.121094 Z M 798.1875 435.191406 L 798.472656 435.472656 L 800.164062 433.777344 L 799.882812 433.492188 Z M 769.179688 458.515625 L 798.613281 429.183594 L 798.542969 429.109375 L 797.765625 429.535156 L 768.898438 458.234375 Z M 798.613281 429.109375 L 798.683594 429.183594 L 799.035156 428.828125 Z M 782.449219 457.03125 L 782.378906 457.386719 L 792.824219 459.152344 L 793.320312 458.871094 Z M 800.09375 455.40625 L 799.601562 455.265625 Z M 799.601562 455.265625 L 782.519531 449.609375 L 782.378906 449.964844 L 797.976562 455.125 L 798.117188 454.769531 Z M 799.601562 455.265625 L 798.117188 454.769531 L 797.976562 455.125 L 799.105469 455.476562 Z M 780.402344 453.144531 L 780.332031 453.496094 L 796.425781 457.03125 L 796.847656 456.75 Z M 800.234375 446.429688 L 798.753906 445.296875 Z M 798.332031 445.4375 L 798.542969 445.15625 L 795.011719 442.46875 L 794.800781 442.753906 L 798.472656 445.582031 Z M 798.472656 445.582031 L 799.953125 446.710938 L 800.164062 446.429688 L 798.683594 445.296875 L 798.542969 445.15625 L 798.332031 445.4375 Z M 800.308594 450.175781 L 791.484375 444.804688 L 791.273438 445.085938 L 798.261719 449.328125 L 798.472656 449.042969 Z M 800.308594 450.175781 L 798.402344 449.042969 L 798.1875 449.328125 L 800.09375 450.457031 Z M 800.164062 441.550781 L 798.332031 439.925781 L 798.542969 439.644531 L 796.285156 437.664062 L 796 437.945312 Z M 800.164062 441.550781 L 800.378906 441.269531 L 798.542969 439.644531 L 798.332031 439.925781 Z M 795.859375 437.734375 L 796.070312 437.945312 L 796.355469 437.664062 L 796.140625 437.453125 Z M 798.1875 452.933594 L 789.085938 447.488281 L 788.871094 447.773438 L 799.953125 454.347656 L 798.046875 453.214844 Z M 798.1875 452.933594 L 797.976562 453.214844 L 799.882812 454.347656 L 800.09375 454.0625 Z M 796.917969 480.003906 L 800.023438 483.75 Z M 800.023438 483.75 L 800.308594 483.539062 L 797.203125 479.863281 L 796.917969 480.074219 Z M 795.648438 482.902344 L 795.082031 481.488281 L 794.730469 481.628906 L 796.355469 485.589844 L 795.296875 483.042969 Z M 795.648438 482.902344 L 795.296875 483.042969 L 796.355469 485.589844 L 796.707031 485.449219 Z M 795.648438 482.902344 " fill-opacity="1" fill-rule="nonzero"/><path fill="#ffffff" d="M 760.003906 503.332031 L 760.003906 522.0625 L 894.953125 444.027344 L 894.953125 452.296875 L 760.003906 530.332031 L 544.808594 405.855469 L 544.808594 371.855469 L 760.003906 496.332031 L 760.003906 496.261719 L 544.808594 371.855469 L 556.945312 364.785156 L 556.945312 365.917969 L 757.746094 481.984375 L 757.886719 481.84375 L 757.886719 481.984375 L 881.542969 410.519531 L 893.894531 417.660156 L 894.953125 417.023438 L 894.953125 425.292969 Z M 760.003906 503.332031 " fill-opacity="1" fill-rule="nonzero"/><path fill="#ffffff" d="M 883.804688 373.90625 L 883.804688 379.632812 L 757.886719 452.4375 L 757.886719 446.710938 Z M 757.886719 481.984375 L 883.804688 409.175781 L 883.804688 403.453125 L 757.886719 476.257812 Z M 682.863281 257.769531 L 557.582031 330.222656 L 556.945312 329.867188 L 556.945312 365.917969 L 757.746094 481.984375 L 757.746094 446.640625 L 883.660156 373.835938 Z M 682.863281 257.769531 " fill-opacity="1" fill-rule="nonzero"/><g clip-path="url(#24c76b3268)"><path fill="#1f1f38" d="M 896.15625 427.132812 L 896.15625 417.589844 L 884.789062 411.015625 L 884.789062 402.605469 L 880.414062 405.148438 L 880.414062 382.953125 L 884.933594 380.339844 L 884.933594 373.339844 L 682.863281 256.425781 L 555.746094 329.9375 L 555.746094 364.152344 L 543.605469 371.148438 L 543.605469 406.5625 L 760.003906 531.675781 L 896.15625 452.933594 L 896.15625 441.90625 L 893.050781 443.742188 L 893.050781 428.898438 Z M 882.460938 406.703125 L 882.460938 409.671875 L 758.945312 481.066406 L 758.945312 478.097656 Z M 758.945312 475.410156 L 758.945312 453.214844 L 878.085938 384.367188 L 878.085938 406.5625 Z M 882.601562 378.925781 L 759.089844 450.316406 L 759.089844 447.347656 L 882.601562 375.957031 Z M 682.863281 259.183594 L 881.261719 373.90625 L 757.746094 445.296875 L 559.347656 330.574219 Z M 558.148438 332.625 L 756.546875 447.347656 L 756.546875 480.640625 L 558.148438 365.988281 Z M 758.804688 506.582031 L 758.804688 528.28125 L 546.007812 405.148438 L 546.007812 373.90625 L 758.875 496.96875 L 758.875 506.582031 Z M 760.003906 494.917969 L 547.207031 371.855469 L 555.816406 366.90625 L 555.816406 367.402344 L 758.171875 484.316406 L 884.296875 411.367188 L 882.601562 412.359375 L 892.625 418.15625 Z M 761.207031 505.167969 L 890.648438 430.3125 L 890.648438 445.15625 L 761.207031 520.011719 Z M 893.753906 446.074219 L 893.753906 451.589844 L 761.207031 528.28125 L 761.207031 522.769531 Z M 761.207031 502.410156 L 761.207031 496.96875 L 893.753906 420.273438 L 893.753906 425.71875 Z M 761.207031 502.410156 " fill-opacity="1" fill-rule="nonzero"/></g></svg>